<?xml version="1.0" encoding="UTF-8"?>
<svg xmlns="http://www.w3.org/2000/svg" version="1.1" viewBox="0 0 612 256">
  <defs>
    <style>
      .cls-1, .cls-2 {
        fill: #9d9b92;
      }

      .cls-2 {
        font-family: BennetDisplay-BoldItalic, 'Bennet Display';
        font-size: 23.3px;
        font-style: italic;
        font-weight: 700;
      }

      .cls-3 {
        fill: #0a3d21;
      }
    </style>
  </defs>
  <!-- Generator: Adobe Illustrator 28.7.10, SVG Export Plug-In . SVG Version: 1.2.0 Build 236)  -->
  <g>
    <g id="Layer_1">
      <path class="cls-3" d="M105.6,32.9s0,0,0,0c0,0,0,0,0,.1,0,0,0,.2,0,.3,0-.2.2-.3.3-.4,0,0-.1,0-.2,0Z"/>
      <g>
        <path class="cls-1" d="M410.8,130.3v-1c0,.2,0,.5,0,1Z"/>
        <path class="cls-1" d="M350.5,53.5c2.8,0,4.2,0,4.9,0-1.7,0-3.4,0-5.1,0h.1Z"/>
        <path class="cls-1" d="M407.5,56.8c0,0,0-.1,0-.2,0,.1,0,.2,0,.3h0Z"/>
        <path class="cls-1" d="M345.4,53.6c-.3,0-.7,0-.9,0,1.1,0,1.1,0,.9,0Z"/>
        <path class="cls-1" d="M407.7,53.6l-.2,3.2c0,.4,0,.9,0,1.4.1.6.1-3.1,0-4.6Z"/>
        <path class="cls-1" d="M345.4,53.6c1.1,0,2.8,0,4.9,0h-2.3c-5.7,0-3.1,0-2.6,0Z"/>
        <path class="cls-1" d="M305.9,52.9c-.2,0-.3,0-.5,0h-3.1c.5,0,1.8,0,3.5,0,.2,0,.5,0,.8,0-.2,0-.5,0-.7,0Z"/>
        <path class="cls-1" d="M305.5,53.2h.8c-2,0-1.7,0-.8,0Z"/>
        <path class="cls-1" d="M306.5,53.2c-.3,0-.7,0-.9,0h-.7s1.5,0,1.5,0h1c-.3,0-.6,0-.9,0Z"/>
        <path class="cls-1" d="M411,175.3c0-5.5,0-10.9,0-17.2.2-9.1-.3-2.9-.2-11.9.5,0,0-12.2.1-15.9v1.2c-.3-4.4,0-10.5,0-13.6,0-6.7,0-16.6-.2-23.3v1.3c0-5.5.1-8.9,0-14.4,0,.2,0,2.2.1,0,0-6.6,0-13.3,0-20,0-1.7,0-3.3,0-5v-2.5s0-.3,0-.3c0-.1,0-.2,0-.4,0-.3,0-.7-.2-1-.3-.6-.8-1.2-1.6-1.6-.7-.4-1.6-.6-2.5-.6-.1,0-.2,0-.3,0h-1.5s-3.4,0-3.4,0h-6.8c-18,0-36,.1-53.8,0-49.2,0-107.2,0-160.8,0,0,.7.2,1.4.2,2.1.5,0,.9,0,1.5,0-1.4.3,7.9,0,7.7.3,4.1,0,6-.2,10.3-.2,4.8.2-6.5.4-9.1.3-6,0,.8-.1-1.6-.1h-5.7c3.2.2,9.4.2,8.7.4,5.8,0-4.7-.1,1.7-.2h3.8c6.4,0-1.3-.2,7-.2-5.5.1,8.5,0,8.5.2.5-.3,14.9,0,16.6-.2h-4.4c0,0,1,0,1,0-4.8,0-8.8,0-13.7,0,3.9,0-1.3-.2,3.2-.3,8.5-.2,2.3.1,3.5.1h6.8c0-.1-4.6-.3-4.6-.3,5.3,0,12.4,0,19.7,0,10.7.2-1.3.2,6.4.3,3.4,0,2.6-.1,7.5-.1-2.6,0-4.7,0-6.5,0-2.4-.2,8.7,0,8.2-.2,2,0,1.6.1,0,.2,8.1,0,15.9,0,19.1.2h0s0,0,0,0h1.3c0,0,1.6-.2,1.6-.2h.6s0,0,0,0c8.9,0,2.7.1,0,.2-.2,0-.5,0-.6,0-.6,0-.8,0,0,0,.2,0,.4,0,.6,0,.5,0,1.3,0,2.3,0,4.9,0,9.7,0,11.8,0h-4.2c3.2-.1,3-.2,8.2-.3,3.7,0,1.7.2,6.1,0,.7,0,1.4,0,2,0,6.4,0,3.7.2,1.3.4,1.7,0,3.6,0,5.2,0,.3,0,.5,0,.8,0,.8,0,1.5,0,2,0,.6,0,1,0,1.1,0,0,0-.2,0-1.2.1-.4,0-.9,0-1.5,0-.2,0-.4,0-.6,0-.3,0-.5,0-.7,0h0c-5.8-.1-1.9.2-4.8,0h-1.1s-.5,0-.5,0c-.2,0-.3,0-.4,0,.4,0,.8,0,1.1,0h0c2.2,0,2.1.1,1.4.2h3c0,0,1.4,0,1.4,0h.5s0,0,0,0h.2c.7,0,1.3,0,1.9,0,1.9,0,3.2-.1,4.4,0,3.9.2-4.7.2,2.2.3.6,0,1.3,0,2.1,0h.4c.4,0,.8,0,1.2,0,1.8,0,3.3,0,4.5,0,.2,0,.4,0,.6,0,3.3,0,4.8-.1,7.3-.2.4,0,.7,0,1.2,0,.3,0,.5,0,.8,0,.7,0,1.4,0,2.2,0-.4,0-1.2,0-2.2,0-.3,0-.6,0-.9,0-.3,0-.7,0-1,0h-.9c2.2,0-1-.1,1.2-.2h0c.1,0,.3,0,.4,0h0c.2,0,.4,0,.6,0,.1,0,.3,0,.5,0h0c2.8.1,10.2.1,16,.1-.3,0-.4,0-.4,0h0c.1,0,2.3.1.8.2,1.4,0,2.8,0,4,0,.3,0,.7,0,1,0h0c.4,0,.8,0,1.2,0h0c.4,0,.8,0,1.1,0-.4,0-.8,0-1.2,0h0c-.5,0-.9,0-1.2,0-.4,0-.7,0-.9,0-.5,0-.4,0,0,0,.2,0,.5,0,.9,0,.3,0,.7,0,1.1,0,3.5,0,9.2,0,3.7-.2,4.7,0,7.5,0,9.9,0,2.5,0,4.5.1,7.6.2-.4,0-11.1.1-2.6.2,9.8-.2-1.5-.2,5.7-.5,0,0,.2,0,.2,0h-.3s-5.9,0-5.9,0c-.4-.1,2.6-.1,5.8-.1h0c.6,0,1.1,0,1.7,0,2.2,0,4.2,0,4.8,0,3.8,0-5.3,0-1.6.2,1,0,2,0,2.8,0h.7c3.5,0,5.9,0,8.7,0-3.6.1-1.3,0-5.3.2,6.7,0,6.5,0,6,0-.3,0-.7,0-.3,0,.2,0,.5,0,1.1,0,.3,0,.7,0,1.1,0,.2,0,.5,0,.8,0h.1s0,0,0,0h0s0,0,0,0c.1,0,.2,0,.2,0,0,0,0,0,0,0,0,.2,0,.4,0,.7s0,.7,0,1.2c0-.9.1-1.3.2-2.1,0,0-.1-.2-.4-.3,0,0-.1,0-.2,0-.3,0-.7,0-1.1,0-.8,0-1.7,0-2.8,0,.7,0,1.8,0,3.1,0h.9c0,0,.2,0,.3,0,.2,0,.3.2.4.3,0,0,0,0,0,.1,0,0,0,0,0,0h0c0,.4,0,.7,0,1,0,.6,0,1.2,0,1.8,0,1.2,0,2.4,0,3.5,0-3.5,0-1.1,0-4.9.3-.5.3-1.9.5,1.5,0-1,0-1.9,0-2.7v-.3s0,0,0-.1c0,0,0-.2-.1-.2-.1-.1-.3-.3-.5-.3-.1,0-.2,0-.3,0,0,0-.1,0-.2,0,0,0-.2,0-.3,0-.6,0-1.3,0-2,0-1.4,0-3,0-5,0-1.1,0,1.3-.1,4-.2.7,0,1.4,0,2,0,.3,0,.7,0,1,0,.1,0,.2,0,.3,0,0,0,.1,0,.2,0,.5,0,.8.3.9.3.2.1.4.4.4.6h0v.3c0,.1,0,.3,0,.4,0,.3,0,.5,0,.8,0,1.1,0,2.4,0,3.7,0,2.5,0,5.1-.2,6.7.2,5.7.2,12.7.5,17-.1,4.1.2,14.4.1,22.1-.1,1.2-.1,9-.3,5.2,0,1.6,0,6.5.2,5,0-.7,0-1.4,0-2.8l.2,1.2c0,3.7.2,7.9,0,11.5-.2,1.2-.1-6.7-.3-4.3.1,1.4.2,4.4.3,7.9,0,1,0,2.1,0,3.2,0,.3,0,.6,0,.9s0,.2,0,.3h0c0,4,0,7.8,0,9.7,0,1.7-.1,2.5-.2,3.2h0c0,.5-.1.9-.1,1.4v1.5s0,3.5,0,3.5c0,.6-.2.7-.3,1.6,0,2.5,0,4.2,0,5.7-.2,6.6-.3,3.1-.5-.3v-3.7c0-2.7,0-6.6-.2-4.3,0,1.9.1,1.8.2,2.5v2.2c0,2.2,0,8.3.2,7.6-.1,3.9,0,8.3,0,12,0,.4,0,.9,0,1.3,0-1.6.1-.4.2,0,0,0,0,0,.1,0v-1.4s0-3.3,0-3.3c0,1,0,2.1,0,3.3,0,.5,0,.9,0,1.4,0,0,0,0,0,0,0,0,.2,0,.2,0,0,0,0,0,0,0h2.7c0-.5,0-.9,0-1.4Z"/>
        <path class="cls-1" d="M407.6,61.4c-.1.8-.4-3.4-.5.2,0,12.6.5,5.4.5,18.3l.2-6.6c-.2.4-.4-4.3-.4-9.3l.2-1.5c0,.9,0,1.8.1,2.7,0-1.9-.1-1.5,0-3.8Z"/>
        <path class="cls-1" d="M407.7,65.7c0,0,0-.2,0-.3,0,0,0-.1,0-.2,0,.2,0,.3,0,.5Z"/>
      </g>
      <g>
        <path class="cls-1" d="M180,97.3v1c0-.2,0-.5,0-1Z"/>
        <path class="cls-1" d="M237.4,175c-2.7,0-4,0-4.7,0,1.6,0,3.3,0,4.8,0h-.1Z"/>
        <path class="cls-1" d="M183.1,171.7c0,0,0,.1,0,.2,0-.1,0-.2,0-.3h0Z"/>
        <path class="cls-1" d="M242.2,174.9c.3,0,.7,0,.8,0-1,0-1.1,0-.8,0Z"/>
        <path class="cls-1" d="M182.9,174.9l.2-3.2c0-.4,0-.9,0-1.5-.1-.6-.1,3.1,0,4.7Z"/>
        <path class="cls-1" d="M242.2,174.9c-1.1,0-2.7,0-4.7,0h2.2c5.4,0,3,0,2.4,0Z"/>
        <path class="cls-1" d="M279.9,175.6c.2,0,.3,0,.5,0h2.9c-.4,0-1.7,0-3.3,0-.2,0-.5,0-.7,0,.2,0,.5,0,.7,0Z"/>
        <path class="cls-1" d="M280.2,175.3h-.8c1.9,0,1.6,0,.8,0Z"/>
        <path class="cls-1" d="M279.3,175.3c.3,0,.6,0,.9,0h.6s-1.5,0-1.5,0h-.9c.2,0,.6,0,.9,0Z"/>
        <path class="cls-1" d="M179.8,51.8c0,5.5,0,11.1,0,17.4-.2,9.2.3,3,.2,12-.4,0,0,12.3-.1,16.1v-1.2c.2,4.5,0,10.6,0,13.7,0,6.7,0,16.8.2,23.6v-1.3c0,5.6-.1,9,0,14.6,0-.2,0-2.2-.1,0,0,6.7,0,13.5,0,20.2,0,1.7,0,3.4,0,5.1v2.5s0,.3,0,.3c0,.1,0,.2,0,.4,0,.3,0,.7.2,1,.3.6.8,1.2,1.5,1.6.7.4,1.5.6,2.4.7,0,0,.2,0,.3,0h1.4s3.2,0,3.2,0h6.4c17.2,0,34.3-.1,51.3,0,46.9,0,102.1.1,153.2,0,0-.7-.2-1.4-.2-2.1-.4,0-.9,0-1.4,0,1.3-.3-7.5,0-7.3-.3-3.9,0-5.7.2-9.8.2-4.5-.2,6.2-.4,8.7-.4,5.7,0-.7.1,1.5.1h5.4c-3-.2-9-.2-8.3-.4-5.5,0,4.5.1-1.6.2h-3.7c-6.1,0,1.3.2-6.6.2,5.2-.1-8.1,0-8.1-.2-.5.3-14.2,0-15.8.2h4.2c0,0-.9,0-.9,0,4.6,0,8.3,0,13.1,0-3.7.1,1.3.2-3,.3-8.1.2-2.2-.1-3.3-.1h-6.4c0,.1,4.4.3,4.4.3-5,0-11.9,0-18.8,0-10.2-.2,1.3-.2-6.1-.3-3.3,0-2.5.1-7.1.1,2.5,0,4.5,0,6.2,0,2.2.2-8.3,0-7.9.2-1.9,0-1.5-.1,0-.2-7.7,0-15.2,0-18.2-.2h0s0,0,0,0h-1.2c0,0-1.5.2-1.5.2h-.6s0,0,0,0c-8.5,0-2.6-.1,0-.2.2,0,.4,0,.6,0,.6,0,.7,0,0,0-.2,0-.4,0-.6,0-.5,0-1.2,0-2.2,0-4.7,0-9.2,0-11.3,0h4c-3.1.1-2.8.2-7.8.3-3.5,0-1.6-.2-5.8,0-.7,0-1.3,0-1.9,0-6.1,0-3.5-.2-1.3-.4-1.6,0-3.4,0-5,0-.3,0-.5,0-.7,0-.7,0-1.4,0-1.9,0-.6,0-.9,0-1.1,0,0,0,.2,0,1.1-.1.4,0,.8,0,1.4,0,.2,0,.4,0,.5,0,.2,0,.5,0,.7,0h0c5.5.1,1.8-.2,4.6,0h1.1s.5,0,.5,0c.2,0,.3,0,.4,0-.4,0-.7,0-1,0h0c-2.1,0-2-.1-1.3-.2h-2.9c0,.1-1.4,0-1.4,0h-.5s0,0,0,0h-.2c-.6,0-1.2,0-1.8,0-1.8,0-3.1.1-4.2,0-3.7-.2,4.5-.2-2.1-.3-.5,0-1.2,0-2,0h-.4c-.4,0-.7,0-1.1,0-1.7,0-3.1,0-4.3,0-.2,0-.4,0-.5,0-3.1,0-4.6.1-6.9.2-.3,0-.7,0-1.1,0-.3,0-.5,0-.8,0-.6,0-1.3,0-2.1,0,.4,0,1.2,0,2.1,0,.3,0,.5,0,.8,0,.3,0,.6,0,1,0h.9c-2.1,0,1,.1-1.2.2h0c-.1,0-.2,0-.4,0h0c-.2,0-.4,0-.6,0-.1,0-.3,0-.4,0h0c-2.7-.1-9.8-.1-15.2-.1.3,0,.4,0,.4,0h0c-.1,0-2.2-.1-.8-.2-1.4,0-2.7,0-3.8,0-.3,0-.6,0-.9,0h0c-.4,0-.8,0-1.1,0h0c-.4,0-.8,0-1,0,.4,0,.8,0,1.1,0h0c.4,0,.8,0,1.1,0,.4,0,.7,0,.9,0,.5,0,.4,0,0,0-.2,0-.5,0-.8,0-.3,0-.7,0-1.1,0-3.3,0-8.8,0-3.5.2-4.5,0-7.2,0-9.4,0-2.4,0-4.3-.1-7.3-.2.4,0,10.6-.1,2.4-.2-9.3.2,1.4.3-5.4.5,0,0-.2,0-.2,0h.2s5.7,0,5.7,0c.4.1-2.5.1-5.5.1h0c-.5,0-1.1,0-1.6,0-2.1,0-4,0-4.6,0-3.7,0,5.1,0,1.5-.2-1,0-1.9,0-2.7,0h-.7c-3.4,0-5.6,0-8.3,0,3.4-.1,1.2,0,5.1-.2-6.4,0-6.2,0-5.7-.1.3,0,.6,0,.3,0-.2,0-.5,0-1.1,0-.3,0-.7,0-1.1,0-.2,0-.5,0-.7,0h0s0,0,0,0h0s0,0,0,0c0,0-.2,0-.2,0,0,0,0,0,0,0,0-.2,0-.4,0-.8s0-.7,0-1.2c0,.9-.1,1.3-.2,2.1,0,0,0,.2.3.3,0,0,0,0,.2,0,.3,0,.7,0,1.1,0,.8,0,1.6,0,2.7,0-.7,0-1.7,0-2.9,0h-.9c0,0-.2,0-.3,0-.2,0-.3-.2-.4-.3,0,0,0,0,0-.1,0,0,0,0,0,0h0c0-.4,0-.7,0-1,0-.6,0-1.2,0-1.9,0-1.2,0-2.5,0-3.6,0,3.6,0,1.1,0,5-.2.5-.3,2-.5-1.6,0,1,0,1.9,0,2.8v.3s0,0,0,.1c0,0,0,.2.1.2.1.1.3.3.5.3,0,0,.2,0,.3,0,0,0,.1,0,.2,0,0,0,.2,0,.3,0,.6,0,1.2,0,1.9,0,1.4,0,2.9,0,4.8,0,1,.1-1.3.1-3.8.2-.6,0-1.3,0-1.9,0-.3,0-.6,0-.9,0-.1,0-.2,0-.3,0,0,0-.1,0-.2,0-.5,0-.8-.3-.9-.3-.2-.1-.3-.4-.4-.7h0v-.3c0-.1,0-.3,0-.4,0-.3,0-.5,0-.8,0-1.1,0-2.4,0-3.7,0-2.6,0-5.2.2-6.8-.2-5.8-.2-12.8-.5-17.2,0-4.2-.2-14.5-.1-22.4.1-1.2,0-9.1.2-5.2,0-1.6,0-6.6-.2-5.1,0,.7,0,1.4,0,2.8l-.2-1.3c0-3.8-.2-8,0-11.6.1-1.2,0,6.8.3,4.4-.1-1.4-.2-4.5-.2-8,0-1,0-2.1,0-3.2,0-.3,0-.6,0-.9s0-.2,0-.3h0c0-4,0-7.9,0-9.9,0-1.7.1-2.6.2-3.2h0c0-.5.1-.9.1-1.5v-1.5s0-3.6,0-3.6c0-.6.2-.7.3-1.6,0-2.5,0-4.2,0-5.8.1-6.7.3-3.1.5.3v3.8c0,2.7,0,6.7.2,4.4,0-1.9-.1-1.8-.2-2.5v-2.2c0-2.2,0-8.4-.2-7.7.1-3.9,0-8.4,0-12.1,0-.5,0-.9,0-1.3,0,1.6-.1.4-.2,0,0,0,0,0,0,0v1.4s0,3.3,0,3.3c0-1,0-2.1,0-3.3,0-.5,0-.9,0-1.4,0,0,0,0,0,0,0,0-.2,0-.2,0,0,0,0,0,0,0h-2.6c0,.5,0,1,0,1.4Z"/>
        <path class="cls-1" d="M183,167c.1-.8.4,3.4.5-.2,0-12.7-.5-5.4-.5-18.5v6.7c0-.4.2,4.3.2,9.4l-.2,1.6c0-.9,0-1.8-.1-2.8,0,1.9.1,1.6,0,3.9Z"/>
        <path class="cls-1" d="M182.9,162.7c0,0,0,.2,0,.3,0,0,0,.1,0,.2,0-.2,0-.3,0-.5Z"/>
      </g>
      <text class="cls-2" transform="translate(201.1 205.5)"><tspan x="0" y="0">No Image Available</tspan></text>
      <path class="cls-1" d="M399.5,107.5c.6-.8,0-1-.2-1.5-.6-1.5-1.7-3.2-1.3-4.7.4-1.5-.3-2.6-.3-3.9-.1-.3-.2-.6-.3-.9,0,.7-.2,1.4-.5,2.1-.2-1.3-1.3-2.3-.5-3.7-.7-.5,0-1.4-.7-2.1-.9-1-.9-2.2-.4-3-.7-2.5-1.4-5-2.1-7.5-.6.2-.6-.4-.7-1.1,0-.4,0-.8-.3-1.1-.7-.7-.3-1,0-1.4-.2-.6-.4-1.3-.5-1.9-.6-.2-.6-.9-.5-1.7,0,0,0,0,0,0-.2-.7-.4-1.5-.7-2.2,0,0-.2-.1-.3-.2-.4-.2-1-1.4-.4-1.9,0,0,0,0,0,0-.9-3-1.8-6.1-2.5-9.1-.3-.1-.6-.3-.9-.4,0,.3,0,.5,0,.7,1.8,6.1,3.3,12.4,5,18.6.8,2.9,1.7,5.8,2.3,8.8.3.9.6,1.7.6,2.7,1.3,2.4.9,5.2,1.5,7.7-1.7-3.5-2.1-7.5-4.1-10.9.9,2.3,1.5,4.8,2.1,7.2.6,2.2,1.5,4.2,1.9,6.5.2,1.4.6,3,1.1,4.4.2.7.7,1.4.5,2.2,0,.3-.3.6.1.7.2,0,.7,0,.7,0,.4-1.1,1.3-.8,2-1,0-.8-1.5-.4-.9-1.1Z"/>
      <path class="cls-1" d="M409.1,131.4c-4-1.5-8-3-12-4.5-7.6-3-15.2-6-22.9-8.9-4.2-1.6-8.4-3.1-12.5-5.1h0c-.7.7.2.8.3.8,1.9.8,3.7,1.8,5.6,2.5,11.8,4.4,23.3,9.4,35.1,13.5,2.5.9,4.9,1.8,7.3,2.8,0-.2,0-.4,0-.6-.4-.1-.8-.3-1.1-.5Z"/>
      <path class="cls-1" d="M257.9,74.4c0-.3.7-.4,0-.7-.2-.1-.6,0-.7.2-.6,1.2-1,.7-1.5-.1.8-.3,1.2-1.1,2-1.6-.8-.3-1.4.2-1.9.3-1.3.3-2.7-.1-3.9.4-1.2.5-1.3,0-1.3-1.2,0-4.5,0-9,.8-13.4.1-.7.1-1.3.8-1.8-2-.9-4-1.7-5.9-2.5-.4-.2-1-.4-.7-.9,0,0,.1-.2.2-.3-.4,0-.8,0-1.2,0,0,1.1-.2,2.1-.3,3.1,0,0,0,0,0,0,.3,0,.5,0,.6.4-.2.4-.4.6-.8.6,0,.5-.1.9-.2,1.4.3,0,.7,0,1,.2-.4.5-.8.7-1.1.8,0,.1,0,.3,0,.4,0,0,.1,0,.2,0,.8,0,1,.5,1,1.2,0,1.4.1,2.8-.1,4.1-.5,3.2,0,6.5-.2,9.7,0,1,.4.9,1.2.7,2.6-.8,5.2-1.8,8-2.1.5,0,1-.1,1.2.3.3.7-.4.7-.7,1.1-.3.4-.7.4-1.2.3-.1.1-.2.2-.3.4-.1.5,0,.9.4.6.7-.4,1.9-.5,2.1-.2.7,1.2,1.3.3,2,.3.8,0,1.2-.7,1.8-1-.5,0-1.1.4-1.2-.6Z"/>
      <path class="cls-1" d="M366.2,125.1c-2.1-.4-2.2-.4-2.5,1.8,0,.6,0,1.6-.7,1.6-.6,0-1.8-.1-1.9-1.1-.2-1.6-1.3-2-2.5-2.1-1.3-.1-1.6-.7-1.1-1.9,0,0,0,0,0,0,.5-1.9.3-3.8.3-5.7,0-6.8,0-13.7,0-20.5,0-.4-.1-.8,0-1.2.6-1.6.1-3-.6-4.4-.6-1.2-1.1-2.5-1.3-3.9-.2-1.2-.2-2.3,1.3-2.4,1.1-.1,2.3-.3,3.4-.4.6,0,1.4,0,1.5-.8,0-.7-.7-.9-1.1-1,.8-1,1.7-2,2.7-3.1-1.2.1-1.7.9-2.2,1.6-.5.7-.9,1-1.7,1-3.7.2-7.3,1-10.9,1.5-3.2.5-6.5.7-9.7,1.1-4.2.6-8.4,1-12.5,1.6-1.4.2-2.8-.3-4.1.5-.2.1-.7,0-.5.6.1.3.4.2.7.2,2.3-.4,4.7-.8,7-.9,1.5,0,2.9-1.1,4.6-.2-7.5.9-14.6,2.3-21.9,2.9-.1-.4.1-.4.4-.5,1.9-.2,3.9-.4,5.8-.7.9-.2,1.9,0,2.9-.8-.4,0-.6,0-.8-.1-2.3-.2-4.5.6-6.7.8-1.6.1-3.2.3-4.8.4-1.5.2-3.1,1.3-4.6-.1-.5-.5-1.9.2-2,.4-.2,1.1-.9.8-1.6.9-3.1.3-6.3.6-9.4,1.1-3.8.6-7.6,1.2-11.5,1.6-.4,0-.9,0-.8.8,6.2-.8,12.4-1.7,18.6-1.8-9.7,1.3-19.4,2.5-29.1,3.8,1.5-1.1,3.2-.6,4.8-1.1,1.6-.4,3.2-.2,4.7-1.2-2.4.1-4.9.4-7.3.7-2.8.3-5.6,1.9-8.5.4-.3-.2-.6,0-.7.1-1.1,1.8-2.7,1.2-4.2.8-1.3-.4-2.6-.8-4-.2-.4.2-.2.8-.9.8-3-.2-6,0-9,.6-.8.2-2.7-.1-3.1-.3-.3-.1-.6,0-.5-.5,0-.5.7,0,.8-.4-.6-.5-1.2.1-1.9-.2-1.9-.9-3.9-1.1-6-.9-.3,0-.6,0-.5.4,0,.3.2.5.6.3.8-.3,1.4-.1,1.8.8-.1,0-.2,0-.3.1-2.4.5-5-.8-7.3.7-.1,0-.4,0-.6-.2-1.1-1.2-2.6-.9-3.9-1.1-.2,0-.5.4-.5-.1,0-.2.3-.3.5-.5-.2,0-.4,0-.6,0-.5-.2-1.1-.2-1.6,0-3.4,3.4-7.3,6.4-10.7,10,.5,0,1.1,0,1.7,0-.3.8-.5,1.4-.8,2.2-.5-.5-.1-1.9-1.3-1.4,0-.1,0-.2,0-.3-.3.3-.6.7-.9,1,0,0-.1.1-.2.2.3.7.7,1.3,1.3,1.8.5.5.5,1.4.4,2.2,0,2.8-.2,5.5-.3,8.3,0,.5.3,1.2-.5,1.4.4.6.3,1.2.4,1.9,0,.8.2,1.7,0,2.3-.2.9.8,2.3-.7,2.8-1,.4-2,.5-3,.6-2,.2-3.9.7-5.8.9-3.5.3-7,1.2-10.5,1.4-1.2,0-2.5,0-3.8.1-.2,0-.5.1-.7.2-.1,0-.2,0-.3.1-.2,0-.5.2-.7.2-1.1.3-2.3.6-3.4.9-.1.8-.2,1.6-.2,2.4,0,0,0,0,0,0,5.5,0,11,.1,16.4-.4,3.9-.4,7.8-.6,11.7-.8,3.6-.2,7.2-.6,10.8-.4.2,0,.3,0,.2-.4-4.6.4-9.3-.2-14,.4,1.3-.5,2.7-.5,4-.6,4.4-.2,8.8-.5,13.1-.7,3.9-.2,7.8-.5,11.7-.7,5.6-.2,11.2-.5,16.8-.7,4.1-.1,8.2-.6,12.3-.4.3,0,.7.1.7-.6h-4c4-1.4,7.7-1,11.4-1.3,4.7-.4,9.5-.1,14.3-.4,3.4-.2,6.8-.7,10.2-.4.1,0,.2,0,.3,0,4.3-.3,8.6-.8,12.9-1,2.6,0,5.3-.4,7.9-.5,1.6,0,3.3,0,4.9-.3,4.3-.8,8.5-1.4,12.9-1.3,1.8,0,3.7.2,5.5-.2.8-.2,1.8.2,2.6,1.1-5.2.6-10.2.6-15.2,1.1-3.3.4-6.6.5-9.9.7-5.5.3-11,.8-16.4,1-4.3.2-8.5.4-12.8.6-3.9.2-7.8.4-11.8.4-3.2,0-6.4.6-9.7.4,0,0-.2,0-.5.3,2.8-.1,5.4-.1,8-.3,5.7-.3,11.3-.5,17-.7,4.3-.2,8.7-.4,13-.7,5.9-.3,11.7-.6,17.6-1,2.8-.2,5.6-.3,8.4-.5,2.1-.2,4.3-.3,6.4-.4,2.9-.1,5.9-1,8.8-.2.9.3,1.7.5,2.6.7,4.6,1.1,9.2,2.1,13.8,3.2.8.2,1.2.6,1.2,1.6-.1,1.5,0,3-.3,4.5,0,.5-.3,1.1.2,1.4.5.4,1.2.2,1.9.1.7,0,.4-.7.5-1.1.2-1.3,0-2.5-1.8-2.7,2.8.2,1.7-2.1,1.9-3.1.2-1.2-1.3,0-1.8-1,1.1.3,1.9-.3,3,0,1.6.5,1.8.2,1.9-1.7,0-.5,0-1.1,0-1.6-.9,0-1.8.1-2.7,0ZM207.9,130.7c.5-.7,1.1-.3,1.9-.6-.7,1.2-1.4.7-1.9.6ZM357.3,83.7c-1.4.3-2.5.8-3.7.3,1.2.4,2.3-1.1,3.7-.3ZM345.1,85.5h-2q1.2-.7,2,0ZM312.4,89.8c-1.6.5-3.2.7-4.9.4,1.6.2,3.2-1.3,4.9-.4ZM303.3,90.8c-1.3.2-2.5.8-3.9.4,1.3-.8,2.6-.6,3.9-.4ZM237.7,96.4c-1.3.8-2.5.6-3.9,0,1.4-.4,2.6-.2,3.9,0ZM232.1,103.5c-1,.7-1.5.5-2,0,.6-.3,1.1-.2,2,0ZM227.8,102.7c.4-.3.4,1,1,.5.2-.2,0-.9.6-.5.3.2.2.5.1.8-.1.3-.4.7-.7.5-1.3-.7-2.4.2-3.6.3-.1,0-.3-.1-.6-.3,1.1-.8,2.3-.7,3.2-1.3ZM221.9,97c.2-.3.4-.7.7-.4,1.1.7,2.2.5,3.8.7-1.7.9-2.9.8-4.3.1-.3-.1-.3-.2-.2-.4ZM227.3,129.8c1.3-.7,2.1-1.2,3.5-.5-1.3.3-2.1.7-3.5.5ZM251.4,128.5c2.7-1,5.4-.6,8.1-.4-2.7,0-5.4,1.4-8.1.4ZM252,126.7c1.3-.6,2.5-.6,3.7-.5.5,0,.9.2.9.7,0,.5-.6.4-.9.3-1.2-.1-2.4.4-3.7-.5ZM355.8,124.1c-.3.6-1,.4-1.5.3-3.7-1.1-7.4-1.9-11.1-2.6-2.5-.5-5,.3-7.6.3-3.3,0-6.6.4-9.8.7-5.2.3-10.3.7-15.5,1.1-3.2.2-6.4.2-9.6.5-5.5.6-11.1.8-16.7,1-4.2.2-8.3.4-12.4,1.1-.6,0-1.2,0-1.9-.1-1.1-.3-2.1-.4-3.2.3-.6.4-1.5,0-2.6-.7,4.7-.5,9.1-.5,13.8-1.4-1-.6-1.7.3-2.2-.4.8-1.7,2.8,0,3.6-1.6-.7-.6-1.6-.6-2.6-.6.4-.3.6-.6.9-.8-1.8-1-3.5.2-5.2.3-.3-.9,1-.3.8-1.1-1.7-.3-3.4.6-5.1.3-.5,0-1.1.3-1.1-.7,0-.3-.5-.2-.9-.1-1.8.3-3.6.3-5.3.5-.8,0-1.1-.3-.9-1.1.6-4.5,0-9.1.6-13.7.3-2.6-.4-3.2-2.8-2.5-.7.2-1.9-.2-1.9,1.3,0,.1-.7.2-1.1.3-.9,0-1.8.3-2.6.3-2-.2-2.2.8-2,2.5.1,1.1,0,2.3,0,3.4,0,1,.3,1.2,1.1.9-1.2,1.1-.9,2.3-.7,3.7,0,.6-.4,1.5-.4,2.3,0,.6.2,1.1.8.9,1.1-.4,2.2.2,3.3-.2.6-.2,1.7-.6,1.7,1,0,.5.5.6,1,.7.7,0,1.4-.1,2.1.4-4.3.2-8.6,1.1-13.1,1,.4-.6.8-.3,1.1-.4,1.1-.3,2.3-2.1,2.1-3.3-.6-3.5,0-7,.2-10.4,0-.9-.2-1.7-.1-2.6,0-.3-.2-.6-.6-.4,0,0,0,0-.1,0-3,.1-2.8.1-3,3.2-.3,4.2-.3,8.5-.3,12.7,0,1.2-.6,1.5-1.5,1.5-2.3-.1-4.7.4-7,.4,0,0-.1,0-.2,0-.8-.2-1.6.9-2.2,0-.3-.5.3-1.4.3-2.2,0-3.5.4-7,.5-10.5,0-.3,0-.6,0-.9,0-3.3-.1-3.5-3.3-2.9-.2,0-.5,0-.6.2-1.2,2-3.2,1.4-4.6.9-.8-.3-2.1.2-2.8-1-.2-.5-.8.4-.9.4-2.7.3-1.9,2.6-2.1,4.1-.2,1.8,0,3.6,0,5.4,0,2-.5,3.9-.3,5.9,0,.7,1.3,1.3,0,2.4,1-.4.9-1.4,1.6-1.4,1.8,0,2.2-1.5,2.6-2.8.2-.6-.3-1.2-.3-1.9,0-.8.1-2.2.8-3.4,0,2,0,3.6,0,5.3,0,.9.2,1,1,.9,1.1-.2,2.3-.2,3.5-.3.1,0,.4,0,.4,0,.2,2.2,2,1,3,1.6-6.8,1.8-13.6,2.9-20.6,4.1,1-.7.3-1.5.4-2.1.3-3,0-6,.4-9.1.2-1.3,0-3-.2-4.4-.2-1.2,1.2-2.4,2.3-2.7.9-.3,1.8-1.3,2.2-2,.5-.9,1-.9,1.7-1.1-.7,0-1.5,0-2.2-.1,0-.1,0-.2,0-.3,1.3,0,2.7.4,3.7,0,1.4-.6,2.6-.3,4.1.3-.8,0-1.3.2-1.8.2,1.4,1.3,2.9.3,4.2.1,1.5-.2,3-.1,4.4-.2.7,0,1.8.3,1.2-1.2,0-.2,0-.4.3-.4,3.4-.4,6.9-.7,10.3-1.2,3-.4,6-.6,8.9-1.7.7-.3,1.2-1,1.8,0,0,0,.3,0,.3,0,.7-1.4,1.5-.9,2.5-.3.6.3.6-.7,1.2-.8,2.2-.3,4.3-1,6.5-1.2,2.2-.2,4.4-1,6.6-.9,1-2.2,3-1.2,4.5-1.5,2.8-.7,5.7-.9,8.5-1.3,3.3-.5,6.5-1,9.8-1.3,2.4-.2,4.7-.5,7.1-.8,3.4-.4,6.8-1,10.1-1.3,2.3-.2,4.5-.5,6.7-.8,3.4-.4,6.8-.8,10.1-1.2,2.1-.3,4.2-.5,6.3-.8,3.5-.5,7-.9,10.5-1.3,2.6-.3,5.2-.5,7.9-.7.5,0,1.1.2,1.5-.3.3-.3.7-.5,1-.3.4.3.3,1,.2,1.3-1.2,1.7-.3,3.3.2,4.9.3,1,1.1,2.1,0,3.2-.3.3.6.9.5,1.6-.5,4.7.9,9.3.7,14-.1,3.1-.2,6.3.1,9.5.1,1.3.2,2.4.8,3.5-.5.2-1.2,0-1.5.8ZM269.3,121.8c1-.9,1.9-1.1,2.8-.3-.9.2-1.7.9-2.8.3ZM255.4,111.8c-1.5-.3-3,.8-4.5-.1,1.5-.1,3-.3,4.5-.4,0,.2,0,.4,0,.6ZM228.8,117.1c-.6-.2-1.3-.3-2-.5-1.2-.2-1.2-1.4-1.3-2.4,0-.4.4-.3.4-.3.3,1.1.7-.9,1.3,0,.4.7,1.6.5,2,.2,1.2-.8.8.5,1.1.8.1.1,0,.5,0,.8,0,1.2-.2,1.7-1.4,1.3ZM225.7,112.4c0-.7.5-.7.9-.6,1.1.2,2.2,0,3.5.9-1.4.2-2.4.3-3.4.5-.5,0-.9,0-.9-.8ZM224.6,109.6v4.5c-.9-1.5-.5-3,0-4.5ZM366.3,128.1c-.6-1.1.1-1.7.1-2.4.2.7.3,1.4-.1,2.4Z"/>
      <path class="cls-1" d="M193.4,178c1.4.1,2.9.3,4.3.4,0,0,0,0,0,0,1.5-.3,3-.7,4.6-.6,2.9.3,5.9-.4,8.9-.2.8,0,1.7-.2,2.2.7.9,0,1.9,0,2.8,0,2.3-.4,4.7.3,7-.5,1.3-.5,3.3,0,5,.3,0,0-.1,0-.2,0,1.4,0,2.7,0,4.1,0-1-.3-2-.8-3.1-1.1,2.1-.3,4.2-.4,6.6-1-3.5-.7-6.7-.6-9.9-.4-1.1,0-2,1.1-3.3,1-3.2-.1-6.4-.3-9.5.3-1.3.3-2.5-.5-3.7-.6-1.9-.2-3.7,0-5.7.3q.9-1.2,3.4-1.1c1.7,0,1.7,0,1.6-.4-.3-1.1-1.2-.5-1.7-.5-3.7-.3-7.5-.5-11.2-.9,1.3-.8,2.8-1.4,4.2-1.1,1.4.3,2.9.3,4.3.3,3.2-.1,6.3.5,9.5.3.5,0,1.2,0,1.3.9,0,.5.1.3.4.3,2.4.5,5-.3,7.3.8,3.1-1.1,6.5,0,9.7-1.2.9-.4,2.1,0,3.2,0,0,0,0,.2,0,.3-.7,0-1.4.2-2,.2,2.6,0,5.2.4,8,.5-.8.6-1.7,0-2.3.7,3.1-.1,6.2.2,9.3.7-2.6.2-5.2,1-7.8.6-1-.1-2.3,0-2.8.6-.2.2-.4.4-.6.6,7.4,0,14.8-.1,22.2-.2,0,0,0,0,0,0,7.5,0,15-.1,22.5-.2,0,0,0,0,0,0,.8-.3,1.5-.8,2.3-.8,3-.1,6,0,9,0,1,0,1.9-.6,3-.3,3.1.9,6.1.7,9.1-.7,0,0,0-.2,0-.1-1.8-1.3-3.8.2-5.7-.8,1-.4,1.9-1.4,2.9-.8.7.4.9.2,1.2-.4.2-.4.6-1,.9-.3.6,1.6,1.5.8,2.3.4-.1-.1-.2-.2-.3-.4-1.6-.6-3.3-1.6-4.9,0,0,0,0,0-.1,0-1.1.1-1.8-.8-2.7-1.3-.4-.3,0-.6.5-.7.6-.1,1.2.1,1.8-.4-1,0-2-.2-2.5-1.3-.1-.3-.3-.1-.4.2-.2,1.1-1,.9-1.6.9-5.9,0-11.8.2-17.7-.5-.3,0-.8,0-.8-.7.3-.5,1.5,0,1.2-1-.1-.5,0-1.6-1.2-1.1-.3.1-.5-.1-.4-.3.6-.7.5-2.1,1.6-2,1,0,.8-.7,1.3-1.2-2.2,0-4.3,0-6.3,0-.8,0-1-.2-1-1.1,0-1.2,0-2.4,0-3.6-.8.9-.3,1.9-.7,2.9-.3.6-1,2.6.9,3.1.2,0,.5.3.4.7,0,.3-.3.4-.6.4-.3,0-.7-.1-1,.2-.2.7,1.4,1,.3,1.8.4.5,1,.5,1.5.7.4,0,.8,0,.7.6-.1.7-.5,0-.7.1-.9.5-2.3,0-2.8,1.4.7.5,1.6.3,2.2,1.1-1.2,0-2.5.6-3.6-.4-.3-.3-.9-.2-1.4.2-.7.5-1.7.8-2.4,0-1.2-1.5-2.8-.9-3.7-.4-1.2.7-2.2.5-3.3.1.7,0,1.4,0,2-.1,0-.7-.6-.4-.8-1,1.8.4,3.2-.5,4.7-1.3.5-.2,1.2-.2,1.8,0,.4.1-.3.8.1,1.1.8-.3,1.7-.4,1.1-1.8.5,0,.8.9,1.3.3,0-.1.2-.3.2-.4-.2-.6-.7-.3-1.1-.3-1.2,0-2.3.4-3.4.4-2.1,0-4.2-.7-6.3-.7-5.3,0-10.6,0-15.8,0-.8,0-1.4.5-2.2.3-2.9-1.1-5.9-.5-8.8-.2-.1.5.8.8,0,1.2-.4.2-.7-.3-.7-.7,0-.4-.2-.8-.6-.9-.7-.2-1.4,0-1.5-1.2,0-.6-1.4.1-2-.5,0,0,0-.2-.2-.4h12.2c-1.5-1.2-2.8-.2-4-.3-1.2,0-1.7-.6-1.7-1.8,0-2.3,0-4.6.2-6.8,0-.9.3-2.1,1.1-2.4.8-.3.8-.7.8-1.3,0-1.8-.2-3.6,0-5.3.5-4.2,0-8.4.6-12.6.2-1.5-1-1.9-1.8-1.8-2.2.4-4.4,0-6.6.4-5.7.9-11.6.3-17.3,1.5-.1-.4.8-.3.6-.8-.2-.4-.7-.2-1-.3-.6,0-.8.5-1.2.7.5.5.7,1.1.7,1.9,0,5.1-.4,10.2-.8,15.3-.2,3.3-.6,6.6,0,9.9.2.9-.7,1.2-.6,2.3,0,.8-1.4.6-2.2.5-.2,0-.4,0-.6,0-2.2.6-4.4.4-6.6-.1-.6-.2-1.1,0-1.6,0-2.1.2-4.1.7-6.2.5-.7,0-1.4-.7-2.1-.2.3,1,1.3.1,1.8.8-.8,0-1.6.4-2.2-.2-.7-.9-1.5-.7-2.3-.7-.4,0-.8-.1-1.2-.2-1.3-.3-2.6-1.5-4,.2-.1.1-.2.2-.3.3-.1,2.2-.3,4.3-.3,6.5.7,0,1.4.3,1.8.8h-1.8c0,.1,0,.2,0,.4,1.8.4,3.6-.7,5.4.2-.4.5-.7.7-1.3.7-1.4,0-2.7-.3-4.1-.4,0,1.1,0,2.2,0,3.2,4.1.3,8.1.7,12.2,1.1.8-.3,1-.3,1.6.1ZM293.8,175.1c.9.1,1.9.1,2.8.2,0,0,0,.1,0,.2-.9.1-1.8.3-2.8.4-.3,0-.7.2-.7-.3,0-.3.2-.5.6-.5ZM282.1,172.2c-.7.6-1.5.3-2.5.3.8-1,1.8.2,2.5-.3ZM280,177.1c-.6.2-1.2.3-2.1,0,1-.8,1.5.2,2.1,0ZM278.6,171.5c-1.4-1.2-2.2,1.3-3.5.6,1.2-1.8,2.2-2,3.5-.6ZM256.9,173.2c-1.5.4-3,.6-4.6-.1,1.7-1,3.1-.1,4.6.1ZM245.8,174.2c2,0,4,.4,6,.3,1.3,0,2.6.7,3.9.3,0,0,.1,0,.2,0,0,2,1.3,1.2,2.1,1.1,1.1,0,2.1.3,3.2.2.6,0,1.7,0,2,1.2-.9,0-1.8.2-2.7,0-1.7-.6-3.5-.8-5.3-.2-1.3.4-2.6-.4-3.8-.9-1.7-.8-3.4-.7-5.1-.7-1.4,0-2.9.3-4.2-1.1,1.3,0,2.4,0,3.6,0ZM234.6,137.1c.4,0,.4.3.3.6,0,.3-.3.6-.4,1-.3-.4-.6-.7-.7-1,0-.4.5-.5.8-.5ZM214.4,167.1c1.7-.6,3.3-.4,4.8-.2.5,0,.7.7.3,1.2-.5.6-1.3,1.3-1.8.6-.8-1.1-2.1-.9-3.3-1.6ZM214.7,172.7c2.7-.8,5.5-.6,8.4.3-3,.9-5.7-.9-8.4-.3ZM220.7,167.5c.5-.1,1-.4,1.3.2,0,.1,0,.7-.5.7-.7,0-.7-.5-.8-.9ZM208.5,163.2c.5-3.4.3-6.9.7-10.3,0-.6-.7-1.5.7-1.4.4,0,0-2.2-1-2.8.8-.3,1.4-.6,1.5-1.7.1-.9,1.1,0,2-.1-3.1-.9-1.4-3.3-1.8-5-.1-.6.3-1.1-.7-1.4-1.1-.3-.4-1.2.2-1.5.4-.3.9-.4.9-1,0-.8.4-.8.9-.8,3.2,0,6.4-.6,9.7-.4,1.1,0,2.2,0,3.3-.3,2.2-.6,4.3,1,6.5.7.3,0,.4.3.4.6,0,.3,0,.6-.4.8-.7.5-1.4.2-2.2.4.5.3.9.5,1.3.7,0,.1,0,.2-.1.2-2.3,0-2.1,0-2.1,2.4,0,3.1,0,6.3,0,9.4,0,1.9,0,3.7.6,5.7.4-1.3,1.1-2.1,2.4-1.9.5.1.5-.5.5-.9,0-2.7,0-5.4.3-8.1.1-1.4.3-2.8.6-4.3,0,3.4.4,6.8,0,10.2,0,.6-.1,1.2-.1,1.8,0,3.2,0,6.5-.2,9.7,0,1-.4,1.7-1.5,1.4-3-.7-6.1-.5-9-.2-2.1.2-4.3-.3-6.4.6h5.3c-.1.8-.6.6-.9.6-1.5,0-3,.1-4.5,0-.4,0-1.8,1-1.4-.9-.3,0-.6,0-.9,0-1.2,0-2.5,0-3.7-.6-.7-.4-.9-.9-.7-1.6ZM204.9,165.7c1,0,0,1.1.6,1.4-.2.4-.2,1-.8,1-.1,0-.3,0-.3,0-.6-.5-2,.1-1.9-.8,0-1.2,1.5-.1,2.3-1.1h-4.3c0-.1,0-.3,0-.4,1.5,0,2.9,0,4.4,0ZM199.4,171.6c-2.2,1.2-4.5.2-6.8.8,2.1-1.5,4.5-.4,6.8-.8ZM182.6,172.4c0,0,0-.1,0-.2h2.5v.2s-2.4,0-2.4,0ZM188,171.6h2.5c-.8.4-1.6.3-2.5,0Z"/>
      <path class="cls-1" d="M241.4,75.4c.8-1.1,1.4,0,2.1.3,0-1.9-1.3-3-2.1-4.4-.2,1-.5,2-.8,3,.3.6.7,1.2.8,1.1Z"/>
      <path class="cls-1" d="M242.3,67.5c.1.2,0,.9.5.5.2-.1.6-.4.5-1-.2-.8-.3-1.5-.4-2.3-.2.9-.4,1.9-.6,2.8,0,0,0,0,0,0Z"/>
      <path class="cls-1" d="M246,141c-1,1-.8,2.4-.8,3.6,0,2.7-.6,5.3-.4,8,0,.3,0,.6-.6.7v-6.9c-.1,0-.2,0-.3,0v3.5c-.7-.9-.1-2-1.1-2.7.2,2.7-.2,5.3-.4,7.8,0,.5,0,1.5-1,2,.2-1.7-.7-1.7-1.8-1.5-1.2.2-1.5-.3-1.5-1.6,0-4.6.5-9.3.4-13.9,0-1.1.5-2.3,0-3.5-.3-.7.3-.8.8-.8,1.4,0,2.8.2,4.3-.5-1-.6-2.3.4-3.1-.8,0,1-.6,1-1.3.9-.4,0-.7-.2-.7-.5,0-.4.2-.5.5-.8.8-.6,1.6-.8,2.6-.7,3.7.1,7.4-.3,11.1-.4,4.6-.1,9.3-.6,13.9-.6,2.4,0,2.5,0,2.4,2.5,0,2.3-.3,4.5-.6,6.8-.2,2.4,0,4.9,0,7.4,0,3.6-.2,7.2-.5,10.9.4-1.6-.8-2.3-1.7-2.9-.5-.4-1.2-.4-.8-1.3,0-.1-.3-.5-.4-.3-1.1,1.8-2.6.2-3.9.5-.7.2-1.7,0-2.5,0,.7-.8,1.7-.2,2.4-.8-2.3,0-4.6,0-6.9,0-.5,0-.8.2-.8.8,0,.5,0,1-.1,1.5-1.2-2.5-1.2-5.1-1.1-8,0,0-.4,0-.3.2,0,.2,0,.4-.1.6-.2.1-.3-.5-.3-2.6-1.4,1.2-.8,2.9-.8,4.4,0,1.1-.3,1.6-1.3,1.4-.7,0-1.5,0-2.2,0-.7,0-.8.6-.9,1,0,.6.5.4.8.4,1.1,0,2.6-.5,3.3.3.7.8.2,2.4.2,3.6,0,1,0,2,0,3,0,.6,0,1.4-.5,1.5-.7.2-1.5.3-2.3-.2-.1,0-.1-1.2-.6-.2-.2.5-1.2,0-.9.9.2.4.2,1,.9,1,1.1,0,2.1,0,3.2,0,.4,0,.9-.2,1.2.1.2.1.6,0,.4.5,0,.2-.4.3-.5.3-1.7-.4-3.5-.3-5.3-.3-.6,0-.6-.5-.6-.9,0-4.5.3-9,.5-13.5,0-2.3-.1-4.6-.2-6.9,0-1-.2-2,.1-3q0-1.1-2.2-.6c.7.4,1.6-.2,2.2.6ZM252.3,134.7c-2.3.3-4.6-.4-6.9.6,2.3-.4,4.6-.2,6.9-.6ZM263,154.3h-4.7c1.6,1.3,3.2,0,4.7,0ZM243.9,134.3c1.4-.4,2.9.5,4.2-.5-1.4,0-2.9-.5-4.2.5ZM250.9,140.2c-.9-.6-1.9-.3-3-.3,1.1,1,2.1,0,3,.3ZM241.3,137.3c0-.2,0-.4,0-.5-.8,0-1.4.3-2.1.8.7,0,1.4-.2,2.1-.2Z"/>
      <path class="cls-1" d="M342.7,175.1c0,.3,0,.8.3.8,1.6-.2,3.1.7,4.6,1,1.6.3,3.2-.5,4.7.1,0,0,0,0,.1,0,.3,0,.6,0,.9,0,.7-.2,1.3-.6,2-.5.4,0,.9,0,.9.5,0,0,0,0,0,0,2.1,0,4.2,0,6.4.1.9-.2,1.8-.1,2.7,0,3.1,0,6.1.2,9.2.2,0-.3.1-.5.4,0,1,0,2.1,0,3.1,0,.5-.4,1-.2,1.5-.2.4,0,.8.3,1.2-.3-1.6-.2-3.1-.6-4.7-.4,0-.1,0-.3,0-.4h4.6c0,0,0-.1,0-.2-1.5-.2-3.1-.4-4.6-.5,0,0,0-.2,0-.3h3.3c-1.8-1.3-3.7.1-5.3-1.4h3.7c-1.4-.7-2.7.3-4-1.1h4.1c-1.1,0-2.1-.6-3.2-.3-1.8.4-2.5-.4-2.5-2.5,0-.3,0-.7,0-1,0-1.3,0-2.6-.4-4.2-.3.9-.3,1.6-.3,2.1.1,2.3-1.1,3.4-2.7,4.4-.5.3-.8.4-1.1,0-.7-.8-1.3-1.5-2.4-.8-.4-.8-.9-1.7-1.7-2.2-.2-.1-.4-.2-.6-.2-1,.2-1.1-.5-1-1.3,0-.7,0-1.2-.7-1.5-.2,0-.4-.2-.4-.6,0-1.2,0-2.4-.1-3.5,0-1.1,0-2.4-.4-3.4-.4-.7-1.6-.1-2.4-.3,0,0-.1-.1-.2-.2.3-.8.8-1.1,1.5-1.3-1.2,0-2-1.3-3.1-1.4-.8,3.4-.3,6.6-.8,9.9-.3,2.1-.2,2.1,1.8,2.1,1,0,2.1-.1,3.1.3.4.2.6.5.2.6-.7.2-.4.4-.2.8.4.8,0,1.5-.5,1.9-.5.4-1.1,0-1.5-.6-.4-.4-.8-.8-1.2-1.3h-.2c.3.7.5,1.3.8,1.8-1.2.6-2.8,0-3.5,2.1-.3-1.2-.5-2.1-.8-3,0,1.4-1.1,1.5-1.9,1.6-1.3.2-2.7.3-4,0-1.4-.3-.2-1.9-.8-2.7-.1-.1-.3-1.5.5-2,0,0,.2,0,.3,0,1.2.4,2.4.1,3.5.2.8,0,1.5,0,1.3,1.3.1-1.1,1.1-1.9.9-3-.3-2.8-.6-5.6-.6-8.4,0-1.2-.6-2.2-.4-3.4,0-.3-.1-.4-.4-.4-1.3-.2-2.4-1.3-3.9-1-1.3.2-1.7-.2-1.5-1.7.2-1.9,0-3.9,0-5.8,0-2.8.2-5.6.4-8.5,1.6.9,3,1.7,4.6.5,1.3,1.2,2.9.1,4.4.7,1.3.5,3.1.2,4.6-.5l-4.1-.5c.8-.4,2-.2,2.3-1.2.3-1.3.9-1.9,2.1-2.3-.6,0-1,0-1.4-.2-3.4-.9-7-1.1-10.5-2-1.5-.3-3.4.1-3.5-2.6,0-.6-.8-.9-1.3-1-.3,0-.6.5-.4.8.8,1.4,0,1.7-1,2-.5.2-.6.8-.7,1.4-.1,1.5.4,2.9.4,4.4,0,4.7,0,9.4,0,14.2,0,2.6.6,5.2.2,7.7-.3,2.3.5,4.4,0,6.6-.1.6.1,1.5.7,1.9,1.6.9,2,2.3,2,4.2,0,1.1-.2,1.4-1.1,1.4-.7,0-1.5-.1-2.1.6.6.6,1.4.6,2.1.9-1.6,0-3.3-.4-4.9,0,.4,0,.8,0,1.3,0,2.1,0,2.1,0,1.8,2.3ZM360.1,159.2c-.7.9-1.2-.2-1.8-.3.6-.3,1.1-.9,1.8-.3.2.1.1.4,0,.6ZM347.3,155.2c.5,0,.4.3.3.7-.2.9-.2,1.8-.8,2.9,0-1.2,0-2.1,0-3.1,0-.5.1-.6.5-.6ZM343.1,161.2c0-1,.2-2,.2-3,.3,1,.5,2-.2,3Z"/>
      <path class="cls-1" d="M315.5,132.7c-.3-.9.5-1,.2-1.6-.7.2-1.4.2-2.1,0,.2.6.9,1-.1,1.6-.4.2-.3,1.5-.2,2.3.2,4.9-.5,9.7-.4,14.6,0,2.1.3,4.3-.6,6.3-.3.7.7,1.4,0,2.2,0,0-.3,0-.3-.1,0-1.8-.8-2.5-2.5-2.2-.5,0-1,0-1.4,0-.6,0-1.5,0-1.5-.5-.1-1.8-1.3-1.3-2.2-1.3-.9,0-1.2-.2-1.2-1.2,0-2.7,0-5.4,0-8.1,0-.9.8-1.7.4-2.8-.3-1,0-2.2,0-3.4,0-1.5-.4-3-.4-4.5,0-1.6.4-2.4,2-2.1.3,0,.6,0,1,0-.2-.6-.7-.3-1-.4-.4-.1-.4-.4-.3-.6,0-.3.3-.2.5-.2,5.4-.1,10.7-.2,16.1-.5,3-.2,6.1-.4,9.1-.7,2-.2,4,0,6-.5,1.2-.3,2.3.8,2.4,2.1.2,3.2-.4,6.3-.3,9.5,0,.4,0,.7-.5.9-2.7.8-5.5.7-8.3.7-.6,0-.5-.3-.6-.8-.4-2.6.2-5.1-.4-7.7-.1,1.9-.3,3.9-.4,5.8,0,3.6,0,7.3,0,10.9,0,1.4,0,2.7-.1,4,0,.9-.3,1-1,1-.5,0-1.1,0-1.6,0-1.5-.1-2.7.3-2.9,2.2,0,.3-.2.5-.5.5-.4,0-.3-.5-.2-.7.9-.9.3-1.7,0-2.7-.2-.9,0-2,0-3.1.2-3.9,0-7.7,0-11.6,0-2.7-.2-5.4-.3-8.2,0-.9-.4-1.1-1.1-.8-.3.2-.5.4-.6-.2,0-.4-.4-.5-.6-.3-1.3,1.2-3.4,0-4.5,2.1ZM330.2,130.6c2.5-.2,5,.3,7.5-.4-2.5.2-5-.2-7.5.4Z"/>
      <path class="cls-1" d="M411,178.2c-.2-7.1-.3-14.2-.3-21.3,0-2.6,0-5.2.1-7.8-.6-1.8-1.4-3.4-2.7-4.8-.7-.7-2.8-1.1-3.3-.4-1.5,1.7-2.8,3.6-3.8,5.7-.7,1.5-.5,3.2-1.3,4.6-.4.7-.6,1.4-.7,2.2-.7,7.3-.5,14.7-1,22,.6,0,1.2,0,1.9,0,3.7-.2,7.5-.2,11.2-.2Z"/>
      <path class="cls-1" d="M297.1,146.1c-.1,0-.4,0-.4.1,0,1.9-.7,3.8-.4,5.7.6,3.2,0,4-2.9,4.3-.9,0-2.7-.7-1.8,1.7,0,0-.2.4-.4.4-.3,0-.5-.2-.5-.5,0-1.2,0-2.4,0-3.6,0-4.8,0-9.5,0-14.3,0-.3,0-.6-.4-.8-.5.9,0,2-.4,3-.2-.7-.1-1.6-1.1-1.4-1.8.5-4.1-.9-5.2,1.9-.5-.4.2-1.4-.8-1.7-.3,1.5,0,3.1-.6,4.6-1.1-.2-.7-2-2.5-1.9-1.8,0-1.8.8-2.2,2-.3-.5-.6-1-.6-1.7-.4.5-.8,1.5-1.1.7-.4-1.2-.9-.5-1.4-.4-.8.1-.8.9-.7,1.5.2,1.7-.4,3.4-.8,5.4-.4-2.2-.7-3.9-.7-5.6,0-3.7,0-7.4,0-11.1,0-1.4.8-2.3,2.1-2.5.1,0,.2,0,.3,0,5.1.2,10.3-.4,15.4-.4,2.7,0,5.4-.2,8.1-.3,1.6,0,2.2.4,2.2,2.2,0,3.2-1,6.4-.6,9.7,0,.4,0,.8-.6.7-.6,0-.7.4-.7.9,0,.5-.1.9.8,1,.8,0,.6,1.2.5,1.8-.2,2.1-.2,4.2-.2,6.3,0,1.6-.8,3.2-.5,4.8,0,.3-.5.3-.8.5,0-1,.6-2,0-3-.2-.4.2-.8.6-1,.3-.1.3-.5.2-.7-.1-.4-.4-.2-.6-.1-1.2.4-1.5-.4-1.5-1.4,0-2.3,0-4.5.1-6.8-.4-2.1.5-4.2,0-6.3-.2,1.7-.3,3.4-.4,5.1,0,.5.2.8.5,1.2ZM298.5,143.4c.1-.5,1,0,1-.8,0-.4-.3-.4-.5-.4-.4,0-.8,0-.7.6,0,.2-.1.6.3.6Z"/>
      <path class="cls-1" d="M399.2,124.7c-.5-.2-.3-1-.3-1.5,0-.5,0-.7.3-.8,0-.3,0-.6,0-.9,0,0,0,0-.1.1,0-.3,0-.5-.1-.5-.7,0,.4-2.9-1.4-1-.1.1-.3-.3-.3-.7,0-1.1,1.2-1.8,1.3-2.7.2-2.1,0-4.3,0-6.5h-.5c0,1.6-.2,3.3-.2,4.9,0,1.1-.4,2.5-1,2.2-1.4-.6-2.9-1.1-4.1-2.1-.7-.6-.3-2-.1-3,0-.6-.2-1.2-.1-1.8.3-1.7-.3-2.7-1.9-2.9-.2,0-.5-.2-.5-.3.2-1.8-1.6-1.2-2.2-2-.6.7-1.8-.7-1.8.3,0,1.2-.2,2.4-.1,3.6.2,1.9,0,3.9,0,5.9-1.1-.5-1.8-1.4-3.4-1.5,2.1,1.2,4.2,1.8,3.5,4.7-1.9-.8-4-1.7-6-2.5-.2-.1-.4-.4-.4-.7,0-3.2,0-6.4-.3-9.6-.2-2.5.8-5.3-2.4-6.6-1.7-.7-3.1-2.1-5-2.6-.9-.2-1,0-1,.9,0,.8.4,1.6.3,2.5-.5,3.9,0,7.8-.3,11.8-3.1-.8-5.7-3.1-9-3.6,1.2.7,2.6,1.1,3.7,2,2,1.5,5.7,1.2,5.5,5.4,0,0,0,.2-.1.3-2.5-1.2-5-2.3-7.5-3.4-.8-.4-2-.2-1.9-1.7v2.5c1.5,0,2.8.7,4.1,1.2,2.8,1,5.4,2.5,8.4,3,.4.5,1,.3,1.5.6,2.1,1.3,4.5,2,6.7,2.9,2.2.9,4.6,1.6,6.9,2.4,2.7.9,5.5,1.9,8.1,3.3,1,.5,1.5.6,2-.2-.2-.4-.3-.9-.3-1.4ZM374.4,117c-.2-.5-1-.2-1.3-1,1-.1,1.9.3,2.9.5-.4.5-1,.6-1.6.5ZM376.8,111.8c0,1.6-.4,3.1,0,4.7,0,.4,0,.9-.5.8-.6,0-.5-.5-.3-.8.3-.3,0-.4-.2-.5-.3,0-.6,0-.5-.4,0-.4.4,0,.5,0,.3-.2.2-.4.2-.7,0-1.8-.5-3.6-.2-5.4,0,0,0-.1,0-.1-1.6-.9-.1-2.4-.5-3.6-.4-1.4-.1-3.1-.1-4.8.5,0,1,.1,1.7.2-.4.7-1.3,1.4-.2,2.2.3.2,0,1.3.1,2,0,2.2,0,4.4,0,6.6ZM384.9,119.4c-.2.7-.7.9-1.3,1-.6,0-1.2-.3-1.8-.6-.3-.1-.5-.5-.8-.5-2-.3-1.5-1.7-1.3-3.1,1.6.6,3,1.4,4.3,2.2.3.2,1,.2.8.9ZM390.1,115.1c-1.8-1.3.2-3-.4-4.5.9,1.4.4,3,.4,4.5ZM392.6,119.5c1,.7.4,1.7.9,2.8-1.5-.9-.6-2-.9-2.8ZM396.2,120.2c-.4.5-.6-.3-1-.5-.6-.3-1.2-.9-1.8-.9-1.7-.2-.8-1.4-.9-2.2,0-.4.3-.3.6-.2,1.2.6,2.4,1.3,3.6,2.5-.6.1-.9.2-1.2.3,0,.6,1.1.4.6,1.1Z"/>
      <path class="cls-1" d="M329.7,62.8c.8.1,1.5-1.7,2.5-.2.1.2,1.1.4,1.5-.3.3-.6.8-.7,1.4-.6.7,0,1.2,0,2-.7-1.9.3-3.6.5-5.3.8-3.3.6-6.6,1.1-9.9,1.7-.2,0-.6.3-.6.4.2,1.6-1.1,1-1.3.8-1.5-1-3.2-.6-4.6-.5-2.7.1-5.4.5-8,1.2-1.2.3-2.7.8-3.9.4-1.1-.3-2,1.8-3,.2-.3,0-.6,0-.9,0-1.3.3-2.7.4-4,.5-2.1.2-4.3.6-6.4,1.1-1.7.4-3.5,0-4.9,1.6,0,0-.3,0-.4,0,0-.4.7-.3.6-.9-1.6-.1-2.1,2.9-4.3,1.4,1-.1,1.8-.4,2.7-1.3-7.3,1.3-14.3,2-21.3,3.3h2.8c-1.5.9-3.5.1-4.7,2.3,1.4-.9,2.5-1.6,3.9-1.1-.6.5-1.3,0-1.8.5-.7.8-.8.9-2,1-.6,0-.6.3-.4.7.2,0,.5,0,.5.2,0,.3-.4.7.1.8.4,0,1-.2,1.1-.4.5-1.8,2.2-1.6,3.3-2.4.5-.4.7,0,.9.5-.7.2-1.7-.2-1.7,1,.9.2,1.8,0,2.7.3,1.1.3,1.3.1,1.5,1.2.1.6.4.3.6.3,1,0,1.9-.2,2.8-.5-.3-.4-.8.1-1-.5.6-.2,1.3.2,1.9-.3-.2-.9-.9.4-1.1-.6,1.3,0,2.5-.7,3.8-.4-.1.6-.9,0-1,.7,1.3.8,1.8-1.5,3-1.1,0,.6-.8.9-.4,2,.3-1.2,1-1.6,1.8-1.4h0c1.1-.7,2.5-.4,3.9-.9-.7,0-1.3-.1-1.9-.2.2-.5.6-.3.9-.3,1-.1,1.9-.1,2.7-1.2.6-.7,1.9-.8,2.8-1.1,0,0,0,0,0,0,.3.4,1.9.8,2.6,1,1,.2,1.9-.5,2.9-.3,0,.1,0,.3,0,.4-1.7.2-3.5.4-5.3.7,0,.9.7.3.9.7-.3.5-.9,0-1.3.4.7,0,1.3,0,1.9.1-1.9.7-4,.3-5.5,1.9.7.4,1.4-.4,2.2-.3.3,0,.8-.4.9.5,0,.8-.5.8-.7.8-1.1,0-2.4.2-3.1.8-1,.8-2.1,0-3,.6,0,.9.5.7.9.6,1.5-.3,3.1-.2,4.7-.8-.6-.3-1.2,0-1.6-.4,2.4-.8,4.9-.5,7.2-1.4-.2-.1-.5-.2-.6-.1-.6.2-1.2.6-1.7-.1-.1-.2-.4-.3-.2-.6.5-.7,1.2-.3,1.7-.4.3-.9,1.1-1,1.8-1.3h-2c.5-.6,1-.3,1.6-.6-.9,0-1.6,0-2.3-.1,0,0,0-.2,0-.3.6,0,1.3,0,1.9-.1.9-.4,2-.2,2.8-1.3.6-.9,1.9-.3,2.9-.3.3,0,.4.2,0,.3-.5.2.5,1-.4,1-.3,0-.7-.2-1.1.2,1,.1,2,.1,3,0-2.1.4-4.3.4-5.9,2.1l.3.4c.6,0,1.1,0,1.6-.4.3-.7,1.1,0,1.5-.5-.2-.4-.7,0-1-.4,1.6-1,3.5,0,5.1-1-.1-.4-.8.2-1-.4.5.3.6-.4,1.2-.4,1,0,2-.5,2.8-1.1,1-.8,1.3-1.1,1.9-.6.3.2.3.5.7,0,.7-.8-.5-.6-.4-1,1.3,0,2.6-.2,3.8-.5-.4.2-.7.5-1,.7,1.2.6,2.4-.5,3.7,0-.7,1-1.7.7-2.5,1.1-.7.3-2-.2-2,.8.1,1.3,1.4.2,2.2.6h0c1.6-.3,2.6-1.7,4.1-2.4-.7-.2-1.4,0-1.9-1,1.8-.3,3.5-.6,5.3-.8.1,0,1,.8.9,1.5,0,.2-.3.5-.6.4-.8-.3-1.1-.2-1.4.4-.4.7-1.5,1.2-.9,2.3,0,.1-.6-.1-.7.3q1.3,0,1.5-.2c.3-.5,2-1.3,2.4-1,.2.2.5.6.4.9-.1,1.2-1.7,2.5-2.9,2.5-.2,0-.4,0-.5,0,.2.2.1,1.2.9.7.8-.4,2.2.4,2.3-1.5,0-.2.4-.4.7-.3,1,.2,1-.6,1.3-1.3-.4-.1-.4.1-.6.4-.2.3-.7.7-.7-.2,0-.6.6-.8.9-.8,2,.2,3.1-1.6,4.7-2.4-1.5.2-2.6,1.6-4.3,1.1.2.6.8.2.9.7-.8.1-1.4.1-2-.6-.6-.7,0-1.7-.6-2.3.5-.3,1-.2,1.5-.1.2,0,0,.8.5.6,1.7-.6,3.5-.7,5.2-1.1-.7,0-1.3-1.2-2.3-.6-.8.5-2.1.3-3.2.4,3.1-1.7,6-1.3,8.8.3-1.5.3-3.2.4-4,2.4,1.4-.4,2.7-.7,3.9-1.1,1.1-.3,1.6-1.5,2.7-1.5-1.1,0-2.1-.4-3-1,.4-.4,1,.2,1.2-.5-.4-.3-.8.4-1.2-.3,1.5-1.2,3.6-.5,5.2-1.7.4-.3.4,1.2,1,.5.9-.8,2.1-1,3.1-1.8-.4,0-.6,0-.9,0-.2,0-.5-.2-.7-.3-.5-.2-.8.2-.9.6-.3.6-.7,1-1.1.7-1.1-.9-2-.4-3,0-.3.2-.6.3-.8-.1-.2-.3-.2-.9,0-.9ZM265.3,72.4c.7,0,1.3-.8,2.1-.4-.6.8-1.3.6-2.1.4ZM266.8,71.4c2.1-.6,4.2-.8,6.3-.9-2.1.1-4,1.8-6.3.9ZM271.4,72.5c-1.1.1.5,2-1,1.8-.3,0-.6,0-.7-.1-.7-1.2-.7-1.2-1.9-1.2,1.1-1.1,2.3-.6,3.4-.7.2,0,.3.2.2.3ZM271.5,71.3c1.1,0,2.1-.2,3.1.5-1.2,1-2.1.4-3.1-.5ZM276,71.8c.9-.5,1.6-.7,2.5-.5-.7.9-1.5.7-2.5.5ZM281,72.1c0,.6-.4.6-.8.5-.2,0-.5-.1-.3-.3.4-.2,0-.8.6-.9.4,0,.7-.2,1.2-.1-.2.4-.8.2-.8.8ZM286.5,70.6c-.1-.3-.5-.5.1-.8.6-.3,1.2-.2,2.2-.1-1.1.3-1.5,1.1-2.3,1ZM293.7,69.9c-.3.1-.8.1-1,.4-.6.9-.9.6-1.3-.1-.2-.3-.5-.6-.7-.9.4-.2.9-.7,1.3-.4,1.2,1,2.1,0,3.2-.4.6-.2,1.2-.6,2.2,0-1.3.5-2.5,1-3.7,1.5ZM301.3,68c-.9.9-2,.4-3,.4,1-.4,2,0,3-.4ZM300.9,69.9c-.2.4-.5.2-.8.3-.9.2-1.3-.9-2.2-.7,1.1-1.4,2.5.4,3.5-.7-.3.3-.4.7-.6,1ZM307.2,68c1.4-.1,2.7-.9,4.4-.3-1.6.2-3,.8-4.4.3ZM316.8,67.8c.5-.5,1-.8,1-1.6-3.3,1-6.8.8-10.3,1.1,1.3-.6,3-.5,3.9-2,.4.4.2.7-.2,1.1.5.4,1-.6,1.5,0-.2-.3,1.5,0,.2-.7-.1,0-.2-.6,0-.7.4-.3.9-.6,1.5-.4.5.2.3.5,0,.7.3.4.2.9,1.1.8,1.3-.1,2.5-.9,4-.7-.9.8-.7,2.9-2.7,2.5ZM323.1,65c1.5-1.4,3.2-2.2,5.3-1.5-.1.3-.6,0-.7.4-.9,0-1.8.2-2.5,1-.6.6-1.5.7-2.1,0ZM326.8,64.7c.3-.2.6-.4.9-.7,0,0,0,0,0,0h1.6c-.8.4-1.5.9-2.4.6Z"/>
      <path class="cls-1" d="M309.6,158.9c5.7,0,11.5-.1,17.2,0,1.9,0,3.7.3,5.2-1.4.3-.4.9-.4,1.6-.7-.7-.4-1.3-.6-.9-1.6.4-.9,0-1.8-1.2-1.5-1.7.4-2.1-.5-1.9-2.1.2-2.4.2-4.7.3-7.1,0-.1,0-.2,0-.3,0-1.6,0-1.6,1.7-1.6,1.9,0,3.9.3,5.9-.3.9-.3,1.4.2,1.4,1.3,0,2.2,0,4.4,0,6.5,0,1.4-1.5.9-1.7,1.9,1.7.9,1.8.9,1.7,3.3-.1,2.2,0,4.3,0,6.5.2,2.9-1,4.5-3.9,4.1-1.2-.2-2.4,0-3.5,0-8.3,0-16.5,0-24.8,0-1.2,0-2.3-.4-3.6-1.5,1.5,0,2.5.2,3.6.2.7,0,1.3,0,1-1.1,0-.2.2-.4.2-.6.4-2.7-.1-3.2-2.6-2.6-.6.2-1.1.2-1.7,0-.7-.6,2.1-.6.1-1.4-.3-.1.2-.5.5-.5,1.2,0,2.6-.4,3.4,1.1.2.4.8.2,1.2.2,1.5,0,3.1,0,4.6,0,1.5-.1,2.9.5,4.4.5-1.5,0-3,.3-4.5,0-1.1-.3-2.2-.1-3.3-.1-1.5,0-.4,1.4-.8,2-.3.4-.1,1.4.1,2,.4.9,1.1,0,1.7,0,2.2,0,4.5,0,6.7,0,.8,0,1.7,0,2.5-.2-3,0-6-.3-9-.9h9.3c-.2-1.1.9-2.5-1-2.9.2-.9,1.1-.1,1.4-.7-3.8-.7-7.6-.5-11.3-.8ZM332.4,161.3c-.8-.5-1.6-.8-2.5-.8-1.8,0-3.6.5-5.2-1-.1-.1-.6,0-.7.1-.1.2.8.5.1.8-.3.2-.7,0-1.1,0-.9.1-.4.9-.5,1.4,0,.5,0,1.4.5,1.2.7-.3,1.5.1,2.2-.4-.2-.3-.6,0-.6-.6h3.9c-1.7-.9-3.3-.6-4.9-.9h8.8ZM335.9,156.9c-1.4-.6-1,.9-1.2,1.6-.2.5,0,.8.6.8,1.1,0,1.3-.9,1.6-1.7.2-.7-.3-.7-1-.7ZM332.8,162.7c-.3,0-.9-.2-.6.6.3.7-.3,1.6.6,2.1.2-.6,1.4-.3,1.1-1.1-.2-.5.3-1.8-1.1-1.7ZM336.3,155.2c.4,0,.9-.1.8-.6,0-.4-.5-.5-.9-.5-.4,0-.8.1-.8.6,0,.4.5.5.8.5ZM326,164.2c-1-.2-1.9-.3-2.9,0,1,.2,1.9.3,2.9,0Z"/>
      <path class="cls-1" d="M306.5,173.9c-.1-.1-.2-.2-.3-.4.9-2.5-1.2-1-1.8-1.5q.5-1.6-.8-4.5c1.3.7,1.7,1.6,1.9,2.7,0,.2-.2.5.1.7.3.2,3.9.2,4.2,0,.8-.7.7-.6,1.6-.2.5.3,1.2.4,1.8.4,1.8,0,3.5,0,5.3,0,1,0,1.9,0,2.5.9.2.3.5.6.9.2.5-.6,1-.6,1.5,0,.2.2.5.3.7,0,1.2-1.8,3-1,4.5-1.2.5,0,1.1,0,1.6,0,.6,0,2-.5,1,1.2-.1.2,0,.4.3.5.3,0,.5,0,.6-.3.1-.4-.1-.9.3-1.3,1,.7.5,1.8.7,2.7.5,0,.4-.6.4-.7-.5-2.2.8-2,2.2-2.1,1.3,0,2.4.3,3.7.5-.8,0-1.7,0-2,1.1,0,.1-.2.3-.4.1-1-.7-1.1,0-1,.8,0,1.2-.3,1.6-1.5,1.2-.5-.2-1.2-.2-1.8-.1-.9.1-1.2.5-1.2,1.4-.4-.2-.3-.5-.4-.8-.2-1.3-1.2-1.9-2.4-1.2-1,.5-1.9.5-3,.2-2.6-.6-5.1-1.6-7.8-1.5-2.2,0-4.2,0-6.3,1.1-1.4.7-3.4.5-5.1-.1ZM326.6,172c-.8-.2-1.3.2-1.8.7,0,0,0,.4,0,.4.7.2,1-.6,1.5-.8,0,0,0-.2.2-.3Z"/>
      <path class="cls-1" d="M184.5,137.8c2.7,0,5.4,0,8,0v-.4c-3.1-.5-6.2-.8-9.3-.3,0-.9,1.1-.3.9-1.2-.4,0-.8,0-1.2,0-1.9,0-2,.3-1.3,2,.5,1.2.8,2.5-.3,3.6-.4.3-.4.7,0,1,.5.3.3.4,0,.8-.2.4-.3.8-.4,1.2,0,.8,0,1.6,0,2.4,0,.4,0,.7,0,1.1,0,.1,0,.2,0,.3.2,1.4-.3,2.7-.4,4.1,0,.8.2,1.5.2,2.4,0,.1,0,.2,0,.3.2.6.3,1.2.2,2,0,.4,0,.8-.1,1.2.1,1.5.3,3,.6,4.5,0-1.3.7-1.8,1.9-2-.6-.5-1.4.5-1.3-.7.2-2.4.2-4.8.7-7.1.1-.6.7-.8,1.3-.7.7.1,0,.7.2,1.1.1.5,0,1.1-.1,1.6,0,.5.4,1.3-.8,1.3-.6,0-.2,1.1-.3,1.7-.1.5.8.1,1.2.3.6.3.6-.2.6-.6-.2-2.1.5-4.3.2-6.3-.9-.1-2.1.7-2.4-.7-.2-1.3.7-2,2.2-1.7-.7-.6-1.6,0-2-.7.7-.6,1.5,0,2.1-.4.1-.3-.1-.4-.1-.6-.2-1.1-.8-2.3,0-3.3.6-.7.7-1,.1-1.8-.4-.5-.4-1.4,0-1.5,1.2,0,.5-.9.6-1.4,0-.3-.3-.4-.6-.4-.9,0-.5.8-.6,1.2,0,.3,0,.7-.4.8-.3,0-.6,0-.6-.4,0-.8-.3-1.6-.1-2.3.1-.6.9-.4,1.4-.4ZM183.4,144.8c.4.4.6.9.5,1.5,0,.4.2,1-.5.9-.5,0-.6-.6-.5-1.1.1-.5.3-.9.4-1.3Z"/>
      <path class="cls-1" d="M185.6,135.8c.6,0,.8,0,1.1,0,5.6.2,11.2-.5,16.9-.3.4,0,.8-.1,1.2-.2,1.4-.4,2.1.4,2.1,1.9,0,.8-.3,1.2-1,1-3.2-.5-6.5-.3-9.7-.9-2.4-.4-4.8-.6-7.2-.8-1,0-2-.2-3.3-.6Z"/>
      <path class="cls-1" d="M373.3,79.8c.3-2-.4-4.5-.3-6.9,0-.4-.2-.9.2-1.3.5-.4.7.3,1.1.4,1.1.6,1.8,2.9,1.5,4.5-.5,2.5-.4,5,0,7.5,0,.6.4,1.4-.3,1.8-.5.3-2.1-1-2.1-1.7,0-1.3,0-2.6,0-4.4Z"/>
      <path class="cls-1" d="M197.8,153.4c-.4-3.7.2-7.3.1-10.9,0-1,.7-1,1.3-1,.9,0,.6.6.6,1.2,0,.6,0,1.1,0,1.7,0,1.2.5,2.8-1.6,2.8.5.7,1.2.2,1.6.7-.3.7-1.6,1.1-.4,2.3.4.4.1,1.5,0,2.3-.1,1.1-1.2.2-1.7.9Z"/>
      <path class="cls-1" d="M396.2,143.7c-4.8.7-9.3,0-13.6,1.2.2-.5.7-.1.9-.5-.4-.7-1,0-1.5-.1-3-.2-6,.3-9-.3-.9-.2-.4,1.1-1.2,1-1.1-.2-2.3,0-3.4-.2-.6-.1-1.3,0-2.2-.4h5.2c-.7-.7-1.6-.2-2.5-.6h27.4Z"/>
      <path class="cls-1" d="M389.9,95.7c-1.3-.9-1.9-1.7-1.7-3.4.3-2.2.4-4.4-.2-6.6-.2-.9.5-1.7.2-2.7,1.3.6,1.6,1.5,1.6,2.9,0,3.2,0,6.3,0,9.9Z"/>
      <path class="cls-1" d="M403.9,143.6c-2.4,2.1-3.7,4.3-4.5,7,0-2.1-.3-4.2-.6-6.3,0-.7.2-.8.7-.8,1.3,0,2.6,0,4.4,0Z"/>
      <path class="cls-1" d="M410.4,143.6c-.7,0-1.4,0-2.2.2.9.8,1.6,1.7,2.3,2.6,0-.9,0-1.9,0-2.8Z"/>
      <path class="cls-1" d="M328.6,73c.2-1,.9-.5,1-1-.7-.1-1.4-.3-1.7.6-.1.3-.2.2-.7-.2-.5-.4-1.1-.2-1.7,0-1.4.2-2.9.4-4.5.7.6-.9,1.3-.7,2-.8,2.4-.2,4.8-.5,7.1-1,.4,0,.8,0,.4-.6.4.1.7-1.5,1.1,0,.1.5.7.2,1.1.2.6,0,1.2,0,1.8,0-.1.6-.8,0-.9.6.5,0,1,0,1.5,0-1,.1-1.9.8-3,.5,0-.4.6-.3.6-.3-.3-.7-.9-.2-1.3-.3-.4,0-.9,0-.9.7,0,0,.1.1.2.2-.1,0-.3.1-.4.1-.6,0-1.1.1-1.8.4Z"/>
      <path class="cls-1" d="M204.9,145.8c-.2-1.5.5-3,.3-4.6,0-.4,0-.7.6-.8.5,0,.6.3.6.7.2,2.3-.3,4.6-.3,6.9,0,.5-.3.5-.7.5-.4,0-.5-.3-.5-.6,0-.7,0-1.4,0-2.2Z"/>
      <path class="cls-1" d="M321.1,82.3c-2.9.7-5.6.8-8.1,1.8,2.5-.3,5.1-.5,7.6-.8v.5c-3.3-.3-6.3.8-9.2,2.5.2-.6,1-.3,1-.8,0-.3.4-.9-.3-1,.4-.4.5-1.2,1.1-1.3,2.5-.1,4.9-1.5,7.9-.9Z"/>
      <path class="cls-1" d="M276.5,81.8c-.7,0-1.4,0-2.1,0,.1.6-1.5-.4-.7.9.1.3-.8.5-1,.3-1.2-1.2-2.5.1-3.8-.5,1.6-.3,3.1-.6,4.9-1-1.1-.2-1.8-.3-2.5,0h0c.6-.9,1.5-1,2.4-1.3,0,0,.3-.1.3,0,1.1,2.3,2.8.4,4.2.6.7.1.6.2.3.7-.6.4-1.3.4-1.9.4Z"/>
      <path class="cls-1" d="M290.3,87c3.7-.6,7.3-.8,10.7-2.1-.7.9-2,.5-2.7,1.7,1.6,0,3.1-.8,4.6-.4.6.2.2-.6.7-1.2,0,.9.4,1.5-.7,1.6-1.9.2-3.8.4-5.8.1-1.9-.3-4,.5-6,.8-.2,0-.4,0-.7-.5Z"/>
      <path class="cls-1" d="M278.1,76.7h-3.3c.5-.8,1.2-1.3,1.9-.8,1,.7.8,0,.8-.5,0-.5.5-.7.6-1.1h0c1.5.3,2.9-.3,4.5-.3-.4.4-.9.1-1,.8-.1.6-.7,1.1-1.5,1.1-.8,0-1.4.4-2,.8h0Z"/>
      <path class="cls-1" d="M192.2,142.8c.7.2,1-1.1,1.6-.3.5.7-.3,1.4-.3,2.2,0,0-.5.1-.5.1-.4-1.3-1.9-1.7-2.2-3.1-.2-1,.9-1.4.9-2.3,0-.2.5,0,.4.1-.2.9,1.5.7.9,1.8-.3.5-.6,1-.9,1.6Z"/>
      <path class="cls-1" d="M200.5,144.5c0-.6,0-1.2,0-1.9,0-.8.2-1.1,1-1.1.8,0,1,.4.9,1.1,0,.9,0,1.8,0,2.7,0,.9,0,1.6-1.2,1.6-1.4,0-.5-1-.6-1.5-.1-.3,0-.7,0-1ZM201.3,146.4c.6-1.2.4-2.1,0-3.1-.2,1-.7,1.9,0,3.1Z"/>
      <path class="cls-1" d="M367.3,138.5c-1.5,1.7-3.3.5-5,.6h3.7c-2.8-.7-5.6,0-8.4-.4,2.5-.7,7.2-.8,9.7-.1Z"/>
      <path class="cls-1" d="M347.9,68.7c.1.2.3.7.3.7-.9.5-1.9,1.1-2.8,1.4.2-.4.9-.1.8-.9-.1-.6-.5-.4-.9-.4-.5,0-1,0-1.3.4-.5.7-1.2.6-1.8.7-.2-.6.7-.1.6-.6-.6-.3-1.2,0-1.8.2-.5,0-1.2.3-1.2-.6,0-.6.6-.3,1-.3,2.4,0,4.8,0,7.2-.5h0Z"/>
      <path class="cls-1" d="M371.7,126.5c0,1.1.2,2.1-1.3,2-.9,0-1.5-.2-1-1.3,0-.1,0-.3,0-.5-.3-1.5.4-1.9,1.6-1.8,1.5.1,0,1.3.5,1.7Z"/>
      <path class="cls-1" d="M326.2,74.4c.2,0,.5,0,.6,0,.3.2,0,.4-.2.4-.4,0-.8,0-1.4,0,.4.5.9.2,1.3.4,0,0,0,0,0,.1-1-.1-1.7,1.8-2.3,1.1-1.4-1.7-3.3.9-4.7-.8-.2-.2-1.7.2-2.7,0,2-.5,3.9-.9,5.9-.2.3.1.7,0,1-.2.7-.6,1.6-.7,2.3-1.1h0Z"/>
      <path class="cls-1" d="M329.1,81.6c-1.4.2-2.8.4-4.2.5-.1,0-.3-.2-.4-.1-.9.4-1.3-.5-1.9-.8-.2,0-.3-.4-.2-.6.4-.7,2.5-.6,2.9.2,0,.2.2.3.2.3,1.1-1,2.1.8,3.2,0,0,0,.3.1.4.2,0,0,0,.2,0,.3Z"/>
      <path class="cls-1" d="M200.1,150.3c0-.6,0-1.1,0-1.7,0-.7,1.2-1.4,1.7-1.1.1,0,.2.4.2.6,0,.4,0,.7-.5.5-.5-.2-.7.2-.7.6,0,.4-.2.8.5.9.9.2.3,1.2.4,1.8,0,.4.2,1-.3,1.2-.5.1-1.2.4-1.2-.7,0-.7,0-1.4,0-2Z"/>
      <path class="cls-1" d="M368.8,129.1c-.2.6-.4,1.1-.3,1.8,0,.9,0,1.4-1.1,1.4-1.1,0-1.1-.6-1.1-1.5,0-2.2,0-2.2,2.5-1.8Z"/>
      <path class="cls-1" d="M392,87.9c-1.4-1.6-.8-4.3-3-5.2.5-.5.7.4,1,0,.2-.3.1-.8-.1-1.1-1-1.8-.9-4-1.7-5.9.1,0,.3,0,.4-.1.6,2,1.2,4.1,1.8,6.1.6,2.1,1,4.2,1.7,6.3Z"/>
      <path class="cls-1" d="M371.4,130.6c0,.9.2,1.8-1.2,1.7-1.7-.1-.8-1.4-1-2.1-.2-1,.2-1.3,1.2-1.3,1.5,0,1,1,1,1.8Z"/>
      <path class="cls-1" d="M205.3,153.1c0-1,0-2,0-3,0-.4.2-.9.5-.9.6,0,.4.6.4.9,0,2,0,4-.1,6.1,0,.2.2.7-.3.7-.5,0-.5-.3-.5-.7,0-1,0-2,0-3Z"/>
      <path class="cls-1" d="M367.7,67.1c.5-.8,1.4-1.3,2-1.9,1.1-1.2,2-1,3.3-.8.6.1,1.4-.5,2.2-.8-.5,2-2.2,1.5-3.3,1.7-1.2.2-2.3.3-3.1,1.5-.2.3-.6.5-1,.3Z"/>
      <path class="cls-1" d="M367.5,133c.4,0,1.1-.2,1,.6,0,.8,0,1.9-.7,2.3-.4.2-1,.7-1.6.3-.5-.4.1-.9.2-1.4,0-.8-.5-2.1,1.2-1.8Z"/>
      <path class="cls-1" d="M391.7,139.4c-6,.1-11.6.7-17.3.3,1.6-.3,15.3-.7,17.3-.3Z"/>
      <path class="cls-1" d="M311.1,76c.2-.4,0-1.2.9-.7,1.1.6,2.4.8,3.6.9-1.6.3-3.1.5-4.7.8-1.6.2-3.2.4-4.8.5,1.8-.2,3.3-1.1,5-1.5-.2.2-.5.4-.5.6,0,.4.4.2.6.2.6-.1,1.2-.3,1.8-.5,0,0,0-.1,0-.2h-1.9Z"/>
      <path class="cls-1" d="M340.3,76.2c-1.4-.1-2.6.7-4,.4,1.2-.4,1.7-2.1,3.3-1.1-.2-.8-.7-.4-.8-.7,1.2-1.3,2.4,0,3.6,0,0,0,.2.2.2.4,0,.3-.1.3-.4.3-.7,0-1.4-.2-2,0-.2,0-.6,0-.5.5,0,.1.4.2.6.2Z"/>
      <path class="cls-1" d="M369.2,134.5c0-.8-.1-1.6,1.1-1.5.8,0,1.3.4,1.1,1.2-.2.7.4,1.9-1.1,1.9-1.4,0-1-.9-1.1-1.6Z"/>
      <path class="cls-1" d="M352.2,68.9c-.7.2-.6,1.4-1.5,1.3-.6,0-1.3-.1-1.7.6,1.1.5,2.1-.7,3.3,0-2.2.4-4.3.7-6.3,1.1,2.2-.7,3.8-3,6.3-2.9Z"/>
      <path class="cls-1" d="M253.2,75c-.1.1-.2.2-.3.4-.5,0-.9.3-1.3.5-.2,0-.6.3-.7.2-1.4-1.3-2.7.8-4.1.2,1.6-1.4,5.1-2.1,6.5-1.3Z"/>
      <path class="cls-1" d="M355,76.6c-2.7,1.6-5.1-.4-7.4.4,1.3-1.2,3.3,0,4.5-1.6.2-.3.4.2.5.4.5.7,1.1,1.1,2.4.7Z"/>
      <path class="cls-1" d="M293,77.2c1.5-.3,3,.2,4.5-.5v.4c-3.5.5-7,1.1-10.6,1.6.8-.7,1.6-1.2,2.8-1,1.1.2,2.3,0,3.3-.6h0Z"/>
      <path class="cls-1" d="M316.7,82.1c-3.4.5-6.9,1-10.3,1.5,1.9-.4,3.6-1.4,5.5-2-.2.8-.8.5-1.5,1,2.3-.3,4.3-.5,6.3-.7,0,0,0,.2,0,.3Z"/>
      <path class="cls-1" d="M350.2,67.7c1.8-1.3,5.8-1.5,7-.4-1.8,1-3.7-.5-5.5.1-.4.1-.9.6-1.5.2Z"/>
      <path class="cls-1" d="M292.3,88.8c2.1-1.1,4.1.5,6.5.2-1.3,1.1-2.3.6-3.3.3-1-.4-2.4,1.3-3.2-.5Z"/>
      <path class="cls-1" d="M298.4,163.6h-13.7s0,0,0-.1h13.7s0,0,0,.1Z"/>
      <path class="cls-1" d="M308.6,71.8c.6.7,1.9-.5,2.3.8,0,.2.7-.2.5.5-.1.4-.4.7-.7.5-1.1-.7-2.5.2-3.5-.8.1-.7,1.2-.2,1.4-.9h0Z"/>
      <path class="cls-1" d="M305.3,85.2c2.2-.4,4.3-1.5,6.7-2-2,1.6-5,2.5-6.7,2Z"/>
      <path class="cls-1" d="M304.4,76.4c-.3,0-.7-.1-1.4-.3,1.2,0,1.8-.7,2.6-.4,0,.4-.7.1-.5.7.5,0,.9-.3,1.4,0-.8.5-1.7.5-2.5.6.1.5.5.2.7.5-.9.4-1.6,1.2-2.8.5,1.3.3,1.3-1.7,2.6-1.6Z"/>
      <path class="cls-1" d="M339.4,64c-.7.2-1.2,0-1.8-.5,1.5-.9,2.9-2,5-1.7-1,1.1-2.2,1.2-3.2,1.5-.2,0-.7-.2-.7.2,0,.5.7,0,.8.5Z"/>
      <path class="cls-1" d="M334.3,74.5c-1,1-2.4.1-3.4.8,0,0-.2-.2-.3-.3,1-.2-.7-1.1.2-1.3.8-.1,1.7,0,2.4-.6.4,1-.8.8-.6,1.5.5.4,1-.5,1.7-.1Z"/>
      <path class="cls-1" d="M360.4,69.2c1.3-.4,2.4-1.5,3.8-1.6.2.4-.5.4-.3.9.6.4,1.3-.8,2,0-1.8.4-3.6.8-5.4,1.2,0-.1,0-.3,0-.4Z"/>
      <path class="cls-1" d="M334,79c1.8-.8,3.4-.5,5-.8.4,0,1,.8,1.7.7-.8.3-1.5.8-2.3.5-1.7-.7-1.7-.8-2.9-.4-.5.1-.9.1-1.6,0Z"/>
      <path class="cls-1" d="M298.1,75.8c-1,.2-1.4-1.1-2.4-.8.2-.5.9,0,.8-.6,0-.3-.7-.7.2-.7.4,0,.9,0,.7.7-.1.4,0,.7.4.6.2,0,.9.3.5-.5.6-.1,1-.6,1.9-.5-.8.6-1.4,1.2-2,1.7h0Z"/>
      <path class="cls-1" d="M274.3,87.1c1-.5,2.1-.5,3-.4.8.1,1.3.2,1.8-.4.2-.2.5,0,.6.2.1.3-.1.5-.2.5-1.7-.1-3.4.8-5.1.4,0,0,0-.2-.2-.4Z"/>
      <path class="cls-1" d="M262.5,77.8c.8-.1,1.6-.3,2.3-.4.2,0,.7-.3.7.3,0,.3.1,1.1-.5,1-1.1-.1-2.2.6-3.5.3.8-1,1.8-.3,2.5-.7-.4-.6-1.1,0-1.6-.5Z"/>
      <path class="cls-1" d="M248.2,78.5c.3-.4.7-1.1.7-1,1.1.6,2.2-.4,3.4,0-.2.5-.2.9.7.7-1.7.8-3.3-.3-4.8.4,0,0,0,0,0,0Z"/>
      <path class="cls-1" d="M266.5,90.6c-1.6,1.1-3.4.6-5.1.9,1.5-1.5,3.5.2,5.1-.9Z"/>
      <path class="cls-1" d="M363.8,69.5c.7-.5,1.6-.2,2.4-.5.8-.3.2.3.2.5,0,1.1-.9,1.2-1.4,1.7-.2-1.2-1.3-.3-1.8-.9.9-.1,1.6-.5,2.5-.7-.6,0-1.2,0-1.9,0Z"/>
      <path class="cls-1" d="M318.3,85.5c1.4-1.3,3.1-1,4.7-1.1-1.5,1-3.2,1.1-4.7,1.1Z"/>
      <path class="cls-1" d="M246.1,80.9c-1.8,1-3.6.3-5.3.5,1,.2,2-1.3,2.8-.5,1,.8,1.7-1.9,2.5,0Z"/>
      <path class="cls-1" d="M316,72.7c-1.2,1.1-2.4,1.8-3.9,1.8,1.2-1.4,3.1-2.2,3.9-1.8Z"/>
      <path class="cls-1" d="M315.7,79.2c-1.4,1.5-3,2.1-5.1,1.9.7-.4,1.4,0,1.8-.5.1-.2.6.1.5-.3,0-.1-.4-.2-.6-.3,1.2.2,2.1-.7,3.4-.7Z"/>
      <path class="cls-1" d="M286.2,86.9c-1.6,2.3-3.9,1.3-5.7,2,.8-.6,1.8-1.1,2.8-.9,1.2.3,1.8-1,3-1.1Z"/>
      <path class="cls-1" d="M264,77c-.3-.2-1.1.2-1-.4.2-1.1,1.3-.9,2.1-1,.2,0,.7-.4.6.3-.2,1.3-1.1.9-1.7,1Z"/>
      <path class="cls-1" d="M253.4,165.5h8.8s0,0,0,.1h-8.9s0,0,0-.1Z"/>
      <path class="cls-1" d="M276.5,81.8c.7,0,1.3,0,1.9-.4,1.4.2,2.8,0,4.4-.4-.2.3-.2.5-.3.6-1.9.2-3.7.3-5.5.8-.5.1-.7-.1-.5-.6Z"/>
      <path class="cls-1" d="M292.2,75c.6,0,1.1,0,1.6-.4.5.1,0,1.5,1.1.7-.5,1.3-1.6.2-2,1h0c-.5,0-1.3.5-1.4-.6.2-.2.4-.5.7-.7Z"/>
      <path class="cls-1" d="M268,81.4c-.6,0-1.3,0-1.9,0,1.1-.8,2.2-1.7,3.9-1.7-.8.7-1.5,1.1-2.1,1.6h0Z"/>
      <path class="cls-1" d="M358.5,78c-1.8.3-3.5,1.2-5.4.9,1.9,0,3.5-1.2,5.4-.9Z"/>
      <path class="cls-1" d="M355.6,58.4c.8.1.5,1.4,1.4,1.5-.9-.2-1.8.9-2.9,0,.7-.4,1.2-.9,1.5-1.6h0Z"/>
      <path class="cls-1" d="M274.6,77.1c-1.6.6-3.1-1.1-4-.3.9,0,2.4-1.2,4,.3Z"/>
      <path class="cls-1" d="M279.1,78.1c-1.7,0-3.3.7-5.1.6,1.1.2,1.5-1.3,2.5-1.2h0c0,.3,0,.5.5.4.7-.1,1.4-.5,2,.3h0Z"/>
      <path class="cls-1" d="M339,70.1c-1.3.9-2.3.8-3.7.7,1.1-1.4,2.2-.9,3.7-.7Z"/>
      <path class="cls-1" d="M289.8,165.5h7.2s0,0,0,.1h-7.2s0,0,0-.1Z"/>
      <path class="cls-1" d="M397.2,115c-1.6,0-2.4-1.4-3.6-1.9,1.5,0,2.5,1.1,3.6,1.9Z"/>
      <path class="cls-1" d="M292.2,75c-.2.2-.4.5-.7.7-.6,0-1.1-.1-1.8,0-1.3.1.3-.5-.1-.7h0c.8.1,1.4-1.2,2.3-.3l.3.4Z"/>
      <path class="cls-1" d="M299.4,162.4c-.9-.6-1.2-1.3-1.1-2.2,0-.4.6-.4.8-.2.7.6.3,1.4.3,2.4Z"/>
      <path class="cls-1" d="M351.9,61.5c.7-.3,1.5.5,2.2-.4,0-.1.5,0,.6.3,0,.3,0,.5-.3.7-1.1.9-1.7-.1-2.5-.6Z"/>
      <path class="cls-1" d="M297.7,78.1c.5-1.1,1.4-.4,1.9-.8-.1-.5-.7,0-.9-.4.9-.6,1.8.4,2.8.2-1.2,1.1-2.6.2-3.8,1Z"/>
      <path class="cls-1" d="M327.3,175.9c.4-.8,1.1-.8,1.7-1.1.3-.1.6-.2.7.3.1.5-.2,1-.5.9-.7-.2-1.3.3-2,0Z"/>
      <path class="cls-1" d="M358.1,63.9c1.4-1.1,3-.5,4.5-1.1-1.4.9-3,.5-4.5,1.1Z"/>
      <path class="cls-1" d="M338.2,73c-.3.1-.5.3-1.1.6.7,0,1.1.1,1.9.2-.9.3-1.6,0-2.1.5-.1.1-.4,0-.6,0,.5-.2-.8-.9.3-1.1.6-.1,1.1-.1,1.7,0,0,0,0,0,0,0Z"/>
      <path class="cls-1" d="M307.6,75.6c1-.3,1.8-1.4,3.1-1.2-.7,1.4-1.9,1.3-3.1,1.2Z"/>
      <path class="cls-1" d="M365,58.5c-1.2.7-2.1-.7-3.2,0q.6-.5,3.2,0Z"/>
      <path class="cls-1" d="M269.6,78.6c1.2-.5,2.3-.9,3.8-.7-1.3.8-2.6.6-3.8.7Z"/>
      <path class="cls-1" d="M267.9,81.4c1.1,0,2.2.1,3.3.2h0c-1.6.3-3.2.5-5,.8.5-1,1.5-.2,1.8-1.1h0Z"/>
      <path class="cls-1" d="M347,61.4c.7,0,1.4.1,2.1-.3-.1.9-.9.4-1.3.9.4,0,.7.1,1.3.2-.9.2-1.6.4-2.5.6.5-.5.5-1,.5-1.5h0Z"/>
      <path class="cls-1" d="M366.5,65.1c-1.3.9-2.3,1.1-4.1.8,1.5-.8,2.9,0,4.1-.8Z"/>
      <path class="cls-1" d="M282,165.7c-.4,0-.9,0-.8-.6,0-.3.2-1.1.7-.8.4.2,1.1.4,1.2,1,0,.6-.6.5-1,.5Z"/>
      <path class="cls-1" d="M240.5,165.2c.8-.2,1.5-.2,2.3-.5.4-.2,1,0,1,.5,0,.7-.7.5-1,.4-.7-.2-1.5-.3-2.3-.4Z"/>
      <path class="cls-1" d="M347.1,61.3c-.7.6-1.6,1-2.5.9,1.1-.4,1.7-1.9,3.2-1.5-.1.4-.7.2-.7.6h0Z"/>
      <path class="cls-1" d="M272.2,84.1c-.6.2-1.2,0-1.5.9-.2.5-.7.2-1.1.2-.1,0-.2,0-.2-.3.1-.6.5-.6.9-.7.6,0,1.1-.3,1.7-.5,0,.1.1.3.2.4Z"/>
      <path class="cls-1" d="M248.2,78.5c-.6.4-2.1-.3-1.5,1.6-.6-.3-1.2-.4-1.9-.4,1.1-.9,2-1.8,3.4-1.2h0Z"/>
      <path class="cls-1" d="M253.3,88.6c1.4-.8,3-.4,4.5-.9-1.5.7-3,.7-4.5.9Z"/>
      <path class="cls-1" d="M262.3,83c-1.4,0-2.7.8-4.2.4,1.4-.5,2.8-.7,4.2-.4Z"/>
      <path class="cls-1" d="M347.9,68.8c1.7-.6,3.4-.7,5.1-.8-1.7.3-3.4.9-5.1.8h0Z"/>
      <path class="cls-1" d="M370.3,138.9c1,.2,2.3-.8,3.1.6-1-.2-2-.6-3.1-.6Z"/>
      <path class="cls-1" d="M354.8,155.1c0,.5,0,1.2-.4,1.2-.6,0-.5-.7-.5-1.2,0-.3-.2-.9.4-.9.7,0,.4.6.5.9Z"/>
      <path class="cls-1" d="M287.6,84c1.1-.2,2.3.2,3.4-.2-1.2.5-2.4.7-3.6.8-.1,0-.3,0-.1-.2.1-.1.4,0,.4-.4h0Z"/>
      <path class="cls-1" d="M304,71.3c-.3.5-.7.5-1.1.6-.3,0-1.1-.5-.8.6-.2,0-.5.1-.6,0-.3-.3,0-.7.1-.8.7-.5,1.5-.5,2.4-.4Z"/>
      <path class="cls-1" d="M189.1,134.8h4.8s0,0,0,.1h-4.8s0,0,0-.1Z"/>
      <path class="cls-1" d="M393.8,89.3c.3.9.6,1.7.6,2.7-1.3-.5-.8-1.8-1.1-2.8.1,0,.3,0,.4,0Z"/>
      <path class="cls-1" d="M302.9,73.7c1-.2,2,.2,3-.6-.8,1.2-.9,1.3-1.1,1-.6-.7-1.4.9-1.9-.4Z"/>
      <path class="cls-1" d="M292.7,82c-1.3.1-2.7.3-4.3.4,1.5-.9,2.9-.5,4.3-.4Z"/>
      <path class="cls-1" d="M342.4,65.5c.9.1,1.7-.6,2.7-.5-1.1.8-1.4.9-2.7.5Z"/>
      <path class="cls-1" d="M184.8,161.9c-1.2.4-1.7,1.5-3,.8.9-.3,1.5-1.2,3-.8Z"/>
      <path class="cls-1" d="M347.7,82.7c-1.3.2-2.6.3-4.1.5,1.4-1.1,2.8-.4,4-1,0,.1,0,.3,0,.4Z"/>
      <path class="cls-1" d="M339.1,77.1c-1.3.8-2.7.5-4,.4,1.3.1,2.5-.7,4-.4Z"/>
      <path class="cls-1" d="M363,76.1c1.2,0,2.1-.3,3-.7.1,0,.5-.5.5.1,0,.2,0,.5-.3.5-1,0-2,.8-3.3.1Z"/>
      <path class="cls-1" d="M373.7,171.7c1.3-.8,2.8-.3,4.2-.3-1.4.4-2.8-.1-4.2.3Z"/>
      <path class="cls-1" d="M316,78.6c1-.4,2-.7,3.1-.5-1,.8-2,.6-3.1.5Z"/>
      <path class="cls-1" d="M386.6,69.7c.8.9,1.1,2,1,3.3-1-1-.8-2.3-1-3.4h0Z"/>
      <path class="cls-1" d="M270.6,88.3c-1.1,0-2.2.9-3.3.6,1-1,2.3-.2,3.3-.6Z"/>
      <path class="cls-1" d="M278.9,82.6c1.6,0,2.8-.8,4.1-.2-1.3-.1-2.5.8-4.1.2Z"/>
      <path class="cls-1" d="M363.3,78.6c-1.6.3-2.8.5-4.1.8,0-.1,0-.3,0-.4,1.3,0,2.5-.6,4.1-.3Z"/>
      <path class="cls-1" d="M242.8,87c-1.1.8-2.4.5-3.6.4,1.2,0,2.3-.8,3.6-.4Z"/>
      <path class="cls-1" d="M338.3,73.1c-.2-.3-.3-.6-.7-1.1.8.3,1.4-.8,2.2.2-.8-.2-1,.8-1.6.8h0Z"/>
      <path class="cls-1" d="M261.5,76.4c-.7.6-1.7-.2-2.1.9,0,.2-.5,0-.7-.2-.1,0-.3-.2-.2-.4.1-.3.4-.3.7-.3.7,0,1.4,0,2.3,0Z"/>
      <path class="cls-1" d="M260.6,82.3c.6-.9,1.4-.9,2.4-.7-.8.8-1.7.6-2.4.7Z"/>
      <path class="cls-1" d="M266.2,162.3c.3.4,2-1.6,2,1.3-.6-1.4-1.5-1.3-2-1.3Z"/>
      <path class="cls-1" d="M186.4,140.1c.5-.4.9-.2,1.3-.3.4,0,.6.1.6.6,0,.3,0,.6-.3.7-.3,0-.6,0-.6-.5,0-.8-.6-.3-1-.5Z"/>
      <path class="cls-1" d="M347.9,67.8c-1.2,1.2-2.5.3-3.7,1.3.5-1.1,1.1-.8,1.6-.9.6,0,1.2-.2,2.1-.4Z"/>
      <path class="cls-1" d="M300,80.2c1.2-1.2,2.3-.2,3.2-1.2,0,.2,0,.4,0,.6-1,.2-1.9.3-3.3.6Z"/>
      <path class="cls-1" d="M350.7,82.3c0-.9,1.3.2,1-1,0-.2.3-.5.6-.5.1,0,.4.1.2.2-.6.3,0,1-.3,1-.5,0-1,.8-1.5.2Z"/>
      <path class="cls-1" d="M272.9,90.1c1.3-1,2.6-.4,3.7-.6-1.2.2-2.3.4-3.7.6Z"/>
      <path class="cls-1" d="M294.7,80.7c-.5.2-1.1,0-1.6.4-.2.1-.5,0-.8,0,0-.1,0-.3.1-.4,0-.5.5-.5.7-.4.4.4,1,.1,1.5.5Z"/>
      <path class="cls-1" d="M323.8,73.5c-1.2.2-2.2.8-3.4.3,1.1,0,2.1-.8,3.4-.3Z"/>
      <path class="cls-1" d="M390.4,97c-1.1,0-1.6-1.1-2.7-1,1.2-.8,1.8.6,2.7,1Z"/>
      <path class="cls-1" d="M375.4,87c-.9-.4-1.8-.4-2.5-1.5,1.2,0,1.8.9,2.5,1.5Z"/>
      <path class="cls-1" d="M342.6,76.9c.8-.8,1.9-.3,2.7-.7-.8.7-1.8.6-2.7.7Z"/>
      <path class="cls-1" d="M281.6,80.7c-.9.3-1.4-.6-2.1-.2q1.3-.9,2.1.2Z"/>
      <path class="cls-1" d="M241,84.1c.5-.8,1.6-.4,2-1.2,0,0,.3,0,.4.1-.1.2-.2.7-.3.7-.7,0-1.3.6-2.1.4Z"/>
      <path class="cls-1" d="M309,79.6c1.2-.3,2.2-.5,3.3-.7-.9.7-1.7.9-3.3.7Z"/>
      <path class="cls-1" d="M367,57.2c.2-1,.9-.9,1.5-1.2,0,1-.5,1.5-1.5,1.2Z"/>
      <path class="cls-1" d="M299.6,87.6c-1,.4-2,.9-3.3.5,1.3-.2,2.3-.4,3.3-.5Z"/>
      <path class="cls-1" d="M287.6,83.9h-2.7c.8-.5,1.7-.1,2.5-.7,0,0,.5-.2.4.2,0,.2-.2.4-.3.5,0,0,0,0,0,0Z"/>
      <path class="cls-1" d="M306.7,163.5c-1,.3-2.1,0-3.1.3,1-.8,2.1-.3,3.1-.3Z"/>
      <path class="cls-1" d="M347.6,83.4c1,.1,2-.7,3.1-.4-1,.8-2,.5-3.1.4Z"/>
      <path class="cls-1" d="M293.8,83.5c-.2.2-.2.3-.3.3-.5,0-1.1.2-1.5-.1-.2-.1,0-.4.2-.6.7-.4,1.1.1,1.6.4Z"/>
      <path class="cls-1" d="M326.2,74.4c-.9-.6,0-.7.2-.7.8,0,1.6,0,2.3-.5-.2.9-.8.7-1.2.7-.5,0-1.1-.2-1.4.5h0Z"/>
      <path class="cls-1" d="M280.8,87.8c-.9,0-1.7.8-2.7.3.9-.4,1.7-.7,2.7-.3Z"/>
      <path class="cls-1" d="M355.3,71.8c-1,.8-2.1.6-3.5.8,1.3-.7,2.5-.6,3.5-.8h0Z"/>
      <path class="cls-1" d="M349.5,72.1c-.9-.1-1.7.7-2.7.4.8-.8,1.8-.6,2.7-.4Z"/>
      <path class="cls-1" d="M369.6,67.5c-.8.9-1.5.6-2.6.6.9-.8,1.7-.4,2.6-.6Z"/>
      <path class="cls-1" d="M330.6,67.6c-.2-.5-.6-.5-1.2-.5.8-.7,1.5-.7,2.3-.6-.5.3-1,.5-1.2,1.1h0Z"/>
      <path class="cls-1" d="M393.9,109.8c.9.2,1.5.9,2.6,1.7-1.4-.2-2-1.1-2.7-1.5,0,0,0-.1.1-.2Z"/>
      <path class="cls-1" d="M386.6,69.7c0-1.1-1.1-1.9-.7-3.3.4,1.2,1,2.2.7,3.4h0Z"/>
      <path class="cls-1" d="M362.6,75.6c.9-.6,1.8-.5,2.8-.7-.9.6-1.8.6-2.8.7Z"/>
      <path class="cls-1" d="M345.3,79.6c1.1-1,2-.7,2.9-.6-.8.2-1.7.3-2.9.6Z"/>
      <path class="cls-1" d="M294.2,82.3c.9,0,1.7,0,2.6-.5q-.7.7-2.6.5Z"/>
      <path class="cls-1" d="M301.3,78.1c-1.1.4-1.8.8-2.7.5.7-.8,1.5-.5,2.7-.5Z"/>
      <path class="cls-1" d="M337.7,83.8c.6-2.1,1.1,0,1.7,0h-1.7Z"/>
      <path class="cls-1" d="M341,78c.9-.3,1.6-.8,2.5-.5-.7.7-1.5.6-2.5.5Z"/>
      <path class="cls-1" d="M276.5,77.4c.3-.8,1.3.1,1.6-.7,0,0,0,0,0,0h1.8c-1.2.2-2.2.9-3.4.6h0Z"/>
      <path class="cls-1" d="M365.7,74.2c.6-1,1.7-.3,2.4-.9-.6.9-1.7.3-2.4.9Z"/>
      <path class="cls-1" d="M373.5,62.4c.9-.8,1.8-.6,2.6-.9-.7.7-1.6.7-2.6.9Z"/>
      <path class="cls-1" d="M338.1,174.8c-.5,0-1.1.3-1.4-.2,0,0,.2-.5.3-.7.3.3,1,0,1.2.9Z"/>
      <path class="cls-1" d="M292.8,76.3c.8,0,1.6,0,2.4.1-.8.6-1.8-.3-2.3.7h0c-1-.2-.1-.6-.1-.9h0Z"/>
      <path class="cls-1" d="M221.4,131.4h2.8c-.9.1-1.8.1-2.7.1,0,0,0,0,0-.1Z"/>
      <path class="cls-1" d="M305.8,87.4h2.5c-.8,0-1.6,1.2-2.4,0h0Z"/>
      <path class="cls-1" d="M355.3,71.8c1-.2,1.9-.7,3-.5-1.1.5-2,.7-3.1.5h0Z"/>
      <path class="cls-1" d="M324.9,85.5c.6,0,1.5-1.4,2,.4-.7-.2-1.3-.4-2-.4Z"/>
      <path class="cls-1" d="M352.6,80c.7-.2,1.3-.3,2.3-.6-.9.8-1.5,1.1-2.3.6Z"/>
      <path class="cls-1" d="M298.1,75.8c1-.2,2,.1,2.9-.1-1,.3-1.9.7-2.9.1h0Z"/>
      <path class="cls-1" d="M249,94.3c.6-.8,1.4-.5,2.1-.4-.7.2-1.3.8-2.1.4Z"/>
      <path class="cls-1" d="M305.9,87.3c-.7,0-1.4,0-2.4-.1.9-.3,1.5-.5,2.1-.6.8,0,.3.4.3.7h0Z"/>
      <path class="cls-1" d="M358.5,76.3c-.7.1-1.3.2-2,.3.6-.8,1.3-.5,2-.3Z"/>
      <path class="cls-1" d="M252.1,84.4c-.8.2-1.4.2-2.1,0,.6,0,1.2-1,2.1,0Z"/>
      <path class="cls-1" d="M324,78.4c-.7.4-1.5.2-2.3.6,0-.2,0-.3,0-.5.8,0,1.6,0,2.3-.1Z"/>
      <path class="cls-1" d="M329.5,79.6c-.3,0-.2,1.1-.9.8,0,0-.2-.5,0-.7.4-.5.9-.1,1-.1Z"/>
      <path class="cls-1" d="M313.7,85.7h2.2c-.7.3-1.5,0-2.2.6,0-.2,0-.4,0-.6Z"/>
      <path class="cls-1" d="M344.9,73.8c.8-.3,1.5-.7,2.4-.4-.3.4-.8,0-1.2.4-.3.3-.8.2-1.2,0Z"/>
      <path class="cls-1" d="M286.4,89c.6-.6,1.2-.8,1.9-.6-.5.8-1.2.5-1.9.6Z"/>
      <path class="cls-1" d="M343.8,72.1c-1,.2-1.7.8-2.8.3,1,0,1.6-.6,2.8-.3Z"/>
      <path class="cls-1" d="M305,78.6c.6-.4,1.3-.7,2.3-.3-.9.1-1.5.8-2.3.3Z"/>
      <path class="cls-1" d="M286.9,87.8c.8,0,1.5-.3,2.2-.5q-.8.7-2.2.5Z"/>
      <path class="cls-1" d="M258.7,90.2c.7-.2,1.5-.2,2.3-.7-.7,1.1-1.6.7-2.3.7Z"/>
      <path class="cls-1" d="M301.3,172c.4-1.3,1-1.1,1.7-1.1-.4.6-.9.7-1.7,1.1Z"/>
      <path class="cls-1" d="M351.3,60.9c.6-.5,1.3-.7,2.3-.4-.9.2-1.5.8-2.3.4Z"/>
      <path class="cls-1" d="M233.5,93.2h2.6s0,0,0,.1h-2.6s0,0,0-.1Z"/>
      <path class="cls-1" d="M262.3,88.8c1-.2,1.7-.8,2.9-.2-1,0-1.7.6-2.9.2Z"/>
      <path class="cls-1" d="M197.1,143v2.4s0,0-.1,0v-2.4s0,0,.1,0Z"/>
      <path class="cls-1" d="M252.9,82.3c-.7.5-1.4.7-2.5.3,1.1,0,1.7-.5,2.5-.3Z"/>
      <path class="cls-1" d="M282.7,83c.7,0,1.4-.2,2-.4q-.7.6-2,.4Z"/>
      <path class="cls-1" d="M340.4,83.4c.3-.3.3-1,1-.8,0,0,.4,0,.2.2-.3.4-.5,1.1-1.2.6Z"/>
      <path class="cls-1" d="M266.4,86.5c.5-.3,1-.8,1.7-.4-.4.8-1.1.4-1.7.4Z"/>
      <path class="cls-1" d="M238.6,86.8h-2.3s0,0,0-.1h2.3s0,0,0,.1Z"/>
      <path class="cls-1" d="M247.2,88.2c.4-.5.6-1.1,1.2-.8.3.1-.6.3,0,.6-.3.5-.7.2-1.1.2Z"/>
      <path class="cls-1" d="M347,66.7c.6-.9,1.4-.2,2.1-.5-.6.5-1.5,0-2.1.5Z"/>
      <path class="cls-1" d="M305.8,80.4h-2.3s0,0,0-.1h2.3Z"/>
      <path class="cls-1" d="M355.7,58.4c-.4,0-.7,0-1.1-.1.5-.6,1.1-.7,1.8-.5-.2.3-.7.2-.7.7h0Z"/>
      <path class="cls-1" d="M253.9,82.4c.5-.9,1.3-.6,2.4-.5-1.1.3-1.8.1-2.4.5Z"/>
      <path class="cls-1" d="M328.4,79.1h-2.2c0,0,0-.1,0-.2h2.3v.2Z"/>
      <path class="cls-1" d="M374.5,169.2h2.2s0,0,0,.1h-2.2s0,0,0-.1Z"/>
      <path class="cls-1" d="M304.1,83.1h-2.2s0,0,0-.1h2.1s0,0,0,.1Z"/>
      <path class="cls-1" d="M347.4,59.4c-.3.4-.5.9-1,.9-.2,0-.2-.4-.2-.5.3-.7.8-.1,1.2-.3Z"/>
      <path class="cls-1" d="M340.1,103.8c-2.9.4-5.7.7-8.4,1-.5,0-.5-.3-.5-.6,0-2.1,0-4.2,0-6.4,0-.9.7-1.1,1.3-1.1,2.2,0,4.3-.1,6.5-.7.5-.1.9,0,.8.7-.2,1,.4,2.1-.4,3.2-.2.3.4,1.8.7,2.8,0-2.1,0-4.3,0-6.4,0-1.4.4-1.9,1.7-1.7.3,0,.7,0,1,0,1,.3,2.3-1.2,2.8.1.3.7.1,2.1,0,3.1-.2,4.1-.2,8.3,0,12.5,0,1.9-.6,3.3-1.6,4.6-.1-.4,0-.6.2-.9.4-.9,0-1.2-.8-1-1.3.5-2.4.3-3.6-.6-.7-.5-1.8.1-2.7,0-.8,0-1.8.6-2.4,0-.7-.6,0-1.7-.4-2.7-.4.6-.7,1.1-.5,1.8.2,1.1-.3,1.3-1.1,1.4-1,0-1.2-.4-1.1-1.3,0-.3,0-.7,0-1-.1-1.1.2-1.5,1.3-1.4,2.3.1,4.6-.6,6.9-.9-.8-.3-1.7.2-2.3-.3-.6-.6,0-1.7-.4-2.6-.5.9.3,2.1-.4,2.8-.7.7-1.7.2-2.6.3,0,0,0,0-.1,0-.8.3-1.9.6-2.2,0-.4-.8-.2-2-.1-3,0-.7.7-.4,1-.4,2.1-.2,4.3-.5,6.4-.7.5,0,1,0,1.1-.9ZM341.7,108.4c-.3,0-.7,0-.7,0-.7,1-.8,2.2-.5,3.4.2,1,1,.7,1.7.5.4-.2,1-.2,1.4-.1,1.4.3,1-1.1,1.2-1.7.2-.7-.1-1.6-.9-1.7-.8-.2-1.7.3-2.2-.4ZM334,103.9c0-.9-.1-1.6,0-2.2.5-1.9-.5-1.3-1.5-1,2,.3.6,2,1.5,3.1ZM336.2,100.3c1,1,1.6,0,2.3,0h-2.3Z"/>
      <path class="cls-1" d="M282.9,108.9c-.7-.4-1.6-.4-2.2-.1-1.2.5-2.5,0-3.7.6-.4.2-.8,0-.8-.8.1-1.8,0-3.5,0-5.3,0-.4-.1-1.1.5-1,1.1.1,2.2-.4,3.3-.4,1.2,0,2.3,0,3.1-1.3.3-.5,4.3-.6,4.6-.3.3.3.2.6.2.9,0,4.8-.5,9.7-.3,14.5,0,.9-.4,1.4-1.4,1.5-1.6.2-3.1-.8-4.7-.7-.7,0-.6-.6-.5-1,.1-.8-.4-1.9.8-2.4.2,0,.4,0,.6-.2-.7-.2-1.5-.3-1.6-1.4,0,1.1-.5,1.4-1.3,1.2-.3,0-.5,0-.8,0-2.3.3-2.2.3-2.3-2,0-1.1.7-1.1,1.3-1,1.5,0,3.1-.1,4.6-.4.2,0,.5,0,.6-.5ZM285.1,116.3c1,0,2.2.4,2-1.5-.2-1.9-.2-2.2-2.7-2.2-1.6,0-.9,1.7-1.1,2.5-.4,1.5,1,1.2,1.8,1.2Z"/>
      <path class="cls-1" d="M308.2,111.3c-.5-.4-1.6.4-1.8-.8-.1-1,.5-2,1.2-2.5,1.2-.9.8-1.7,0-2.2-.6-.4-.2-.6-.2-.9,0-.5,0-1.2-.8-1,.5-.2,1.1-.4,1.6-.6-1.5,0-2.4-.6-2-2.4-.9.7.6,2.4-1.3,2.5-.7,0-1.5.1-1.3-1.4-.4.8-.2,1.8-1.2,1.7-1.2-.2-1-1.5-1.3-2.3-.2-.8.4-1,1-1.1,1.7-.2,3.5-.4,5.2-.7.5,0,1.1,0,1.1-.8,0-.7.6-.8,1.1-.9,3.3-.5,3.6-.3,3.6,3.2,0,3.8,0,7.5,0,11.3,0,.9-.4,1.7-.3,2.6,0,.6-.6.7-.7.7-1.1-.3-2.2.5-3.3-.2-.3-.2-.6-.2-.9-.4-.4-.4-1.2.5-1.4-.2-.2-.8-.1-1.7,0-2.5,0-1.1,1.4-.2,1.6-1.2ZM310.4,113c0-.9.2-2-.9-2.1-.8-.1-.9.7-.8,1.3.2.8-.5,2.1.8,2.3,1.4.3.6-1,.8-1.6ZM311,112.6c.2.6-.2,1.7.5,1.7.7,0,.6-1.1.8-1.7.1-.5-.1-1-.7-1.1-.8,0-.5.6-.6,1.1Z"/>
      <path class="cls-1" d="M324.8,105.2c0-2.7,0-4.9,0-7.1,0-1,.2-1.7,1.3-1.6.3,0,.6,0,.9-.2,2.5-.7,3.6.6,3.1,3.4-.6,3.7-.5,7.4,0,11.1.3,2.7-.3,3.3-2.8,3.8-2,.4-2.1-.3-2.3-2-.3-2.7,0-5.3-.2-7.4ZM328.9,112c0-.6,0-.9-.5-.9-.8,0-1.6.3-2.4,0-.4-.1-.4.6-.6.9-.1.2,0,.6.2.8.2.1,3.1-.2,3.2-.4,0-.2.1-.4.1-.4Z"/>
      <path class="cls-1" d="M270.4,116.6c0-4.6,0-9.1,0-13.7,0-.6.2-.8.7-1,.9-.4,1.9-.4,2.8-.5,1.1,0,1.1,1.3,1,2.1-.7,3.8-.3,7.5-.2,11.3,0,1-.4,1.9-.2,2.9,0,.4-.4.5-.8.6-.9.1-1.8-.3-2.6.4-.3.3-.4-.3-.4-.4-.1-.5-.2-1.1-.2-1.7,0,0,0,0,0,0Z"/>
      <path class="cls-1" d="M297.3,115.1c0-.8,0-1.4,0-1.9,0-.5-.2-1-.7-1-.5,0-.6.5-.7,1,0,.5.4,1.1-.2,1.9-.1-2-.2-3.6-.1-5.3.1-2.9,0-5.9,0-8.9,0-.9,0-1.6,1.1-1.4.4,0,.9-.2,1.4-.3,1.3-.2,2.1.7,1.9,2.2-.6,3.9-.3,7.9-.1,11.8,0,1-.1,2-.2,3,0,.4-.3.4-.6.4-.9,0-1.9,0-2.8.3-.3.1-.6,0-.7-.5,0-.4,0-.8.5-.8.2,0,.3,0,.5,0,2.2-.1,2.5-.5,2.3-2.8,0-.4,0-.9-.6-1-.7-.1-.7.6-.9,1-.2.6.4,1.3-.3,2.3Z"/>
      <path class="cls-1" d="M280.5,114.7c.3,1.6,0,2.1-1.3,1.9-.3,0-.7,0-.9,0-.7.3-1.5.6-1.9,0-.5-.6-.2-1.6-.1-2.5,0-.2.2-.5.4-.5,1.2-.2,2.4-.5,3.6-.4.9,0,.3,1.1.4,1.4Z"/>
      <path class="cls-1" d="M306,107c-.6,0-.9,0-1.2,0-.7,0-1.5-.9-2.2.3,0,.1-1.1.4-1.4-.4-.4-1.1.1-2.9.9-2.9,1.3.1,2.5-.7,3.7-.3-.4,1-.3,2.1.2,3.3Z"/>
      <path class="cls-1" d="M306.3,112c-1.2.9.9,3.1-1.6,3.2-1.9,0-.5-1.7-1.4-2.5,0,.8,0,1.3,0,1.9,0,.7-.2,1-.9,1-.7,0-1-.2-1-1.1,0-2.3-.1-2.3,2.2-2.4.8,0,1.5-.3,2.7-.1Z"/>
      <path class="cls-1" d="M303.4,110.4c.1,1.2-.5,1.1-1.2,1.1-.8,0-.8-.5-.8-1.1,0-2.5-.4-2.3,2.2-2.2,1.4,0,2.5,0,2.3,2,0,.7,0,1.3-.9,1.4-.9,0-1.2,0-1.6-1.1Z"/>
      <path class="cls-1" d="M278.3,119.2c-1.4,0-2.7,1.1-4.1.2,1.3-.5,2.7-.3,4.1-.2Z"/>
      <path class="cls-1" d="M222.6,123.3c1.6-.2,3.2-.8,4.8-.3-1.6-.2-3.2.7-4.8.3Z"/>
      <path class="cls-1" d="M302.3,121.6c.4-.3.6-.9,1.1-.8,0,0,.2.4.1.6-.3.6-.8.3-1.3.3Z"/>
    </g>
  </g>
</svg>